<?xml version="1.0" standalone="no"?>
<!DOCTYPE svg PUBLIC "-//W3C//DTD SVG 20010904//EN"
 "http://www.w3.org/TR/2001/REC-SVG-20010904/DTD/svg10.dtd">
<svg version="1.0" xmlns="http://www.w3.org/2000/svg"
 width="460.000000pt" height="460.000000pt" viewBox="0 0 460.000000 460.000000"
 preserveAspectRatio="xMidYMid meet">
<metadata>
Created by potrace 1.14, written by Peter Selinger 2001-2017
</metadata>
<g transform="translate(0.000000,460.000000) scale(0.100000,-0.100000)"
fill="#000000" stroke="none">
<path d="M0 3891 l0 -709 50 -11 c28 -6 63 -11 78 -11 15 0 32 -4 38 -8 6 -4
14 -54 17 -112 8 -129 23 -187 77 -293 117 -228 355 -382 602 -388 75 -2 81
-5 69 -28 -6 -10 -8 -26 -5 -37 4 -16 14 -19 69 -18 73 1 76 -1 93 -39 15 -35
39 -44 60 -23 13 13 14 17 3 14 -8 -2 -21 9 -28 24 -19 38 -2 61 53 76 95 26
115 7 55 -49 -22 -21 -41 -45 -41 -52 0 -7 -8 -17 -18 -23 -9 -5 -35 -21 -56
-34 -23 -14 -36 -18 -31 -9 7 11 6 12 -6 3 -8 -6 -25 -11 -39 -10 -27 1 -105
39 -115 56 -3 5 -14 10 -23 9 -9 0 -12 -3 -6 -5 6 -3 9 -16 6 -29 -3 -18 0
-25 11 -25 9 0 19 -5 23 -11 4 -8 -1 -9 -16 -4 -15 5 -20 4 -16 -4 4 -6 18
-11 31 -11 14 0 46 -13 72 -29 27 -16 59 -28 73 -27 14 1 31 -5 38 -14 10 -13
11 -13 6 3 -5 14 0 17 28 17 40 0 141 25 182 45 16 8 32 12 37 9 5 -3 20 6 34
20 27 27 45 33 45 16 0 -6 9 -6 26 0 14 6 30 10 35 10 11 0 2 -64 -13 -93 -5
-10 -12 -29 -14 -43 -2 -13 -14 -39 -25 -58 -11 -20 -18 -40 -14 -46 4 -6 2
-17 -5 -25 -7 -9 -10 -38 -7 -79 4 -52 2 -66 -9 -66 -8 0 -14 -6 -14 -14 0
-21 -18 -30 -34 -17 -7 6 -25 12 -40 13 -14 1 -26 7 -26 13 0 6 -3 7 -8 0 -4
-5 -32 -11 -62 -12 -44 -2 -59 -7 -76 -27 -12 -14 -25 -22 -28 -18 -4 3 -4 -1
0 -11 5 -13 18 -17 64 -17 32 0 71 -7 89 -16 24 -12 46 -14 94 -9 34 4 67 10
72 14 6 3 56 6 113 6 76 0 105 4 111 14 6 10 21 11 60 6 l51 -7 -2 -206 -3
-207 -60 -2 c-33 -2 -195 -10 -360 -18 -165 -8 -401 -20 -525 -25 -124 -6
-355 -17 -515 -25 -160 -8 -298 -15 -307 -15 -15 0 -18 -9 -18 -57 l0 -58 37
0 c35 0 38 -2 41 -32 3 -30 1 -33 -22 -33 -20 0 -26 -5 -26 -22 1 -21 2 -22
14 -5 16 20 36 22 36 3 0 -22 -28 -39 -55 -32 -24 6 -25 4 -25 -34 l0 -40 87
5 c49 3 230 12 403 20 173 8 387 20 475 25 88 6 247 15 353 21 106 6 252 14
325 18 73 4 134 6 137 3 3 -2 8 -200 11 -440 4 -240 7 -458 8 -484 l1 -48 535
0 c451 0 535 2 535 14 0 23 29 27 40 6 10 -18 35 -19 850 -20 l840 0 -1 1787
c-1 1577 -3 1784 -15 1754 -8 -18 -17 -32 -19 -29 -8 7 8 87 16 82 5 -3 12 2
15 11 4 10 -4 27 -22 46 -17 18 -23 29 -14 27 8 -2 19 -12 25 -23 8 -16 10
-11 13 29 2 27 -2 54 -7 59 -6 6 -11 16 -11 21 0 6 5 4 10 -4 7 -11 10 -6 10
22 0 24 -6 41 -18 50 -28 20 -37 39 -15 31 10 -4 21 -11 25 -17 4 -6 8 15 8
47 0 38 -4 57 -12 57 -15 0 -58 49 -57 64 0 6 7 1 16 -11 8 -13 22 -23 30 -23
8 0 11 -4 8 -10 -3 -5 -1 -10 6 -10 9 0 10 17 6 60 -8 76 -17 110 -28 110 -5
0 -6 -8 -2 -17 5 -15 3 -14 -10 2 -16 19 -16 17 -17 -32 0 -32 -4 -53 -11 -53
-6 0 -8 7 -5 17 4 9 1 20 -6 24 -10 7 -10 11 0 21 6 6 12 21 12 32 0 16 -2 18
-9 7 -7 -11 -9 -11 -14 0 -4 11 -6 11 -6 1 -1 -7 -5 -10 -11 -7 -6 4 -10 -6
-11 -22 0 -15 -4 -37 -9 -48 -6 -14 -9 -4 -7 35 0 30 -2 64 -7 75 -6 16 -6 17
3 5 6 -9 11 -10 11 -3 0 6 3 20 6 30 5 15 4 16 -6 3 -9 -12 -10 -10 -3 10 4
14 7 37 7 53 -1 15 3 27 8 27 5 0 8 10 6 23 -2 15 -9 21 -22 19 -18 -3 -18 -3
-2 13 12 13 15 26 11 49 -4 20 -3 26 3 18 10 -15 42 106 42 160 l0 30 -77 -3
c-58 -3 -80 -7 -85 -19 -5 -12 -7 -12 -7 3 -2 32 -16 17 -33 -35 -16 -49 -17
-24 -2 30 6 22 5 23 -47 21 -30 -1 -57 -7 -61 -13 -5 -8 -8 -7 -8 1 0 9 -38
12 -140 12 -77 0 -140 -2 -140 -5 0 -3 7 -21 15 -41 18 -42 18 -43 5 -43 -6 0
-15 20 -22 44 l-12 44 -198 1 c-184 1 -221 -4 -187 -25 6 -4 9 -19 5 -36 -4
-20 -2 -27 5 -22 8 4 9 -3 4 -25 -4 -18 -3 -31 3 -31 6 0 9 -24 9 -52 -1 -29
1 -75 5 -103 5 -30 4 -42 -1 -30 -17 39 -31 116 -31 166 0 33 -4 48 -11 44 -7
-5 -10 3 -8 21 1 16 1 44 1 62 -2 27 -6 32 -27 32 -22 0 -25 -4 -25 -34 0 -19
4 -37 8 -40 5 -3 8 -33 6 -68 -2 -56 -1 -60 8 -30 21 63 33 33 28 -72 -1 -24
2 -36 8 -32 6 4 14 1 18 -5 3 -6 2 -14 -4 -18 -7 -4 -8 -19 -2 -44 4 -20 4
-39 0 -42 -5 -3 -13 18 -18 47 -9 49 -10 44 -10 -57 -2 -173 -11 -456 -17
-496 -3 -27 -1 -36 10 -36 8 0 15 3 15 6 0 3 25 4 56 2 40 -2 59 1 65 10 7 11
9 11 9 1 0 -10 18 -12 75 -9 50 3 75 0 76 -7 1 -6 3 -22 4 -36 2 -14 5 -60 6
-102 2 -43 5 -78 8 -78 3 0 6 -48 5 -108 0 -125 3 -143 23 -116 19 25 16 -2
-3 -31 -9 -13 -13 -28 -10 -33 3 -5 10 -40 16 -78 6 -38 26 -125 44 -194 18
-69 46 -179 61 -245 15 -66 36 -151 46 -190 10 -38 15 -73 11 -77 -16 -16
-424 -48 -667 -53 -143 -3 -289 -8 -325 -10 -36 -2 -114 -5 -173 -5 -64 0
-106 -4 -102 -9 3 -5 22 -7 43 -5 35 5 36 5 18 -10 -19 -15 -19 -16 7 -16 17
0 27 -5 27 -15 0 -10 -10 -15 -31 -15 -16 0 -28 -4 -25 -9 3 -5 15 -7 26 -4
12 3 20 0 20 -7 0 -9 -11 -10 -37 -5 -21 3 -55 7 -75 7 -32 0 -35 2 -23 14 7
8 18 14 24 14 22 0 10 20 -11 21 -18 1 -19 2 -5 6 10 3 17 9 15 15 -3 7 -46 9
-123 7 -179 -6 -513 -4 -520 3 -11 10 -23 122 -30 263 -3 77 -10 158 -15 180
-7 28 -8 6 -4 -75 11 -283 17 -396 20 -410 1 -8 3 -33 3 -55 1 -22 5 -46 10
-53 9 -15 109 -20 153 -8 22 7 26 5 24 -11 -2 -10 0 -25 4 -33 4 -8 10 -27 14
-42 5 -23 3 -26 -10 -21 -14 5 -14 3 -3 -15 7 -11 17 -18 22 -15 5 3 4 -5 -3
-17 -9 -16 -18 -20 -35 -16 -15 4 -25 1 -29 -9 -6 -16 8 -20 56 -16 27 2 33
-6 28 -39 -2 -15 -18 -30 -32 -30 -4 0 -8 10 -10 23 -2 17 -11 23 -37 25 -24
3 -32 0 -29 -10 3 -7 14 -14 26 -16 28 -4 29 -22 2 -22 -12 0 -20 -7 -20 -16
0 -13 7 -15 30 -11 25 6 30 3 30 -13 0 -17 -4 -19 -27 -14 -15 4 -35 17 -44
28 -14 17 -19 18 -32 8 -10 -9 -17 -10 -22 -2 -3 5 1 10 9 10 21 0 20 20 -1
35 -20 15 -7 39 18 32 21 -6 27 9 7 16 -24 8 -48 -5 -49 -27 -1 -19 -2 -18 -8
4 l-8 25 -5 -25 c-5 -24 -5 -24 -7 -2 0 12 6 25 14 28 11 5 12 10 4 26 -6 11
-8 27 -5 35 5 13 4 13 -7 4 -8 -6 -12 -22 -10 -35 3 -13 0 -26 -5 -30 -5 -3
-13 11 -17 31 -4 23 -9 32 -14 24 -6 -10 -12 -9 -25 4 -15 15 -16 14 -17 -12
-1 -15 -3 -20 -6 -11 -2 10 -19 19 -44 23 -21 4 -37 11 -33 16 3 5 -4 9 -15 9
-22 0 -30 20 -8 20 15 0 -32 37 -55 44 -17 4 -18 -8 -18 -140 l0 -144 -35 0
c-18 0 -57 5 -85 11 -48 10 -60 23 -42 45 16 17 72 154 82 197 12 53 -2 157
-30 221 -38 89 -137 186 -189 186 -11 0 -30 4 -43 9 -13 5 -31 12 -42 15 -16
6 -11 14 37 64 124 130 183 263 203 457 12 124 -50 321 -142 446 -51 69 -154
161 -223 198 l-59 31 25 45 c95 171 138 535 62 535 -11 0 -22 7 -25 15 -4 8
-11 12 -17 8 -6 -4 -32 -6 -57 -5 -31 2 -41 0 -31 -7 18 -12 24 -41 7 -35 -6
2 -21 -4 -32 -14 -34 -32 -61 -42 -93 -36 -21 4 -31 3 -31 -5 0 -7 5 -9 10 -6
13 8 13 -5 0 -25 -7 -12 -11 -8 -16 17 -7 34 -24 36 -24 3 0 -21 28 -53 40
-45 9 6 21 -35 13 -48 -3 -5 -17 -6 -32 -2 -16 4 -22 3 -16 -3 16 -15 63 -23
70 -12 4 6 12 7 18 3 6 -4 27 -10 47 -14 l35 -7 -37 -1 c-44 -1 -46 -6 -15
-33 12 -11 16 -17 7 -15 -8 2 -32 -4 -52 -15 -32 -16 -38 -16 -38 -3 0 8 7 15
15 15 8 0 15 7 15 15 0 8 0 18 1 22 0 4 -4 9 -10 11 -6 2 -11 -6 -11 -17 0
-21 -19 -25 -32 -6 -16 22 -20 -8 -8 -67 14 -68 2 -190 -23 -228 -19 -31 -74
-53 -114 -45 -75 14 -108 90 -101 235 2 49 1 84 -4 77 -4 -6 -8 -22 -8 -34 0
-13 -5 -23 -10 -23 -9 0 -7 26 5 66 2 6 -10 21 -26 33 -16 12 -29 29 -29 39 0
13 -9 17 -42 18 -57 2 -199 21 -220 29 -13 5 -16 14 -12 31 4 16 2 24 -7 24
-8 0 -6 5 6 14 16 12 13 14 -30 19 -67 7 -75 22 -75 132 0 51 2 94 5 97 3 3
17 3 30 0 18 -3 25 -11 25 -28 0 -27 6 -28 84 -13 31 7 58 10 60 8 2 -2 7 -18
10 -35 l7 -30 -53 -4 c-107 -6 -103 -5 -103 -31 0 -22 4 -24 40 -23 22 1 58 6
80 12 22 5 57 13 78 16 28 5 37 12 37 27 0 19 6 20 120 18 66 0 120 -5 120
-10 0 -5 -5 -9 -12 -9 -6 0 -8 -3 -4 -7 4 -5 13 -1 19 7 7 8 21 15 32 16 40 2
50 10 55 39 4 24 10 30 30 30 18 0 26 -6 28 -23 5 -31 22 -17 22 18 0 26 2 28
28 21 20 -6 26 -13 24 -28 -1 -11 4 -26 13 -33 12 -10 15 -10 15 2 0 19 52 27
142 22 38 -2 68 0 68 3 0 4 -11 44 -25 90 l-26 83 -634 0 -635 0 0 -709z
m3997 657 c-3 -8 -6 -5 -6 6 -1 11 2 17 5 13 3 -3 4 -12 1 -19z m-120 -25 c-3
-10 -5 -4 -5 12 0 17 2 24 5 18 2 -7 2 -21 0 -30z m240 -20 c-3 -10 -5 -4 -5
12 0 17 2 24 5 18 2 -7 2 -21 0 -30z m125 -116 c-5 -31 -5 -54 0 -51 11 7 11
6 -12 -51 l-19 -50 -1 35 c0 19 -3 46 -6 60 -4 18 -3 21 4 11 8 -10 11 -6 17
17 3 18 4 41 0 52 -3 11 -2 20 3 20 6 0 8 17 5 40 -3 21 -2 47 3 57 13 27 17
-70 6 -140z m-245 -14 c-2 -32 -3 -8 -3 52 0 61 1 87 3 58 2 -29 2 -78 0 -110z
m200 135 c-3 -8 -6 -5 -6 6 -1 11 2 17 5 13 3 -3 4 -12 1 -19z m-499 -68 c-1
-96 -10 -96 -19 -2 -5 57 0 80 18 82 1 0 1 -36 1 -80z m49 58 c-3 -8 -6 -5 -6
6 -1 11 2 17 5 13 3 -3 4 -12 1 -19z m-3197 -21 c0 -5 -4 -5 -10 -2 -5 3 -10
14 -10 23 0 15 2 15 10 2 5 -8 10 -19 10 -23z m-30 -9 c0 -5 -4 -8 -10 -8 -5
0 -10 10 -10 23 0 18 2 19 10 7 5 -8 10 -18 10 -22z m3381 -38 l2 -35 7 30 c6
24 7 21 4 -14 -2 -24 -5 -58 -5 -75 -1 -25 -3 -22 -9 14 -16 101 -20 155 -11
135 5 -11 11 -36 12 -55z m26 48 c-3 -8 -6 -5 -6 6 -1 11 2 17 5 13 3 -3 4
-12 1 -19z m-3767 2 c0 -5 15 -10 34 -10 29 0 33 -3 29 -20 -4 -14 -14 -20
-34 -20 -16 0 -29 -4 -29 -10 0 -5 18 -10 41 -10 36 0 40 -2 37 -22 -2 -19
-10 -24 -40 -26 -49 -4 -48 -22 2 -45 44 -21 46 -25 26 -52 -14 -19 -15 -19
-33 -2 -24 21 -33 22 -33 2 0 -25 -49 -38 -92 -25 -76 22 -72 92 6 108 l41 9
-52 7 c-43 6 -53 12 -53 27 0 16 7 19 50 19 28 0 50 5 50 10 0 6 -18 10 -40
10 -33 0 -40 3 -40 20 0 16 7 20 38 20 20 0 44 5 52 10 20 13 40 13 40 0z
m3657 -37 c-3 -10 -5 -2 -5 17 0 19 2 27 5 18 2 -10 2 -26 0 -35z m390 10 c-3
-10 -5 -4 -5 12 0 17 2 24 5 18 2 -7 2 -21 0 -30z m73 -33 c-26 -70 -34 -75
-16 -10 16 57 27 82 34 76 2 -3 -6 -33 -18 -66z m90 35 c0 -24 -6 -37 -20 -45
-18 -10 -20 -8 -20 26 0 28 3 35 15 30 9 -3 15 0 15 9 0 8 2 15 5 15 3 0 5
-16 5 -35z m97 -12 c-3 -10 -5 -2 -5 17 0 19 2 27 5 18 2 -10 2 -26 0 -35z
m-378 -73 c-12 -50 -24 -88 -27 -86 -3 3 6 49 19 102 13 53 25 91 27 85 2 -5
-6 -51 -19 -101z m98 88 c-3 -8 -6 -5 -6 6 -1 11 2 17 5 13 3 -3 4 -12 1 -19z
m-440 -65 c-3 -10 -5 -4 -5 12 0 17 2 24 5 18 2 -7 2 -21 0 -30z m60 5 c-3 -8
-6 -5 -6 6 -1 11 2 17 5 13 3 -3 4 -12 1 -19z m542 -62 c-6 -20 -7 -51 -4 -67
4 -18 3 -29 -4 -29 -6 0 -11 13 -11 29 0 16 -2 44 -5 62 -4 24 -3 28 3 14 8
-17 9 -17 16 9 4 16 9 26 11 24 3 -2 0 -21 -6 -42z m61 -10 c-13 -34 -13 -49
0 -41 13 8 13 -5 0 -25 -8 -13 -10 -12 -10 3 0 10 -3 16 -8 13 -4 -2 -6 13 -4
35 2 21 8 36 13 33 5 -3 9 0 9 7 0 7 2 10 5 7 3 -3 1 -17 -5 -32z m-710 14 c0
-5 -5 -10 -11 -10 -5 0 -7 5 -4 10 3 6 8 10 11 10 2 0 4 -4 4 -10z m-93 -52
c-2 -13 -4 -5 -4 17 -1 22 1 32 4 23 2 -10 2 -28 0 -40z m280 30 c-3 -8 -6 -5
-6 6 -1 11 2 17 5 13 3 -3 4 -12 1 -19z m-216 -43 c4 -74 13 -78 20 -10 5 53
6 49 8 -40 1 -55 6 -122 9 -150 4 -27 5 -66 2 -85 -4 -23 -9 9 -15 90 -7 101
-10 116 -16 80 l-6 -45 -1 43 c-2 30 -6 41 -14 36 -8 -5 -9 2 -5 26 4 18 7 51
7 73 0 56 8 43 11 -18z m646 3 c-3 -7 -5 -2 -5 12 0 14 2 19 5 13 2 -7 2 -19
0 -25z m-416 -81 c-4 -4 -8 18 -8 50 l-1 58 8 -50 c5 -27 6 -53 1 -58z m554
36 c-10 -40 -17 -20 -9 23 5 24 9 32 12 21 2 -10 1 -30 -3 -44z m-298 5 c-3
-7 -5 -2 -5 12 0 14 2 19 5 13 2 -7 2 -19 0 -25z m-537 0 c0 -10 -4 -18 -10
-18 -5 0 -10 2 -10 4 0 2 -2 11 -5 19 -4 8 0 14 10 14 8 0 15 -9 15 -19z m437
0 c-3 -8 -6 -5 -6 6 -1 11 2 17 5 13 3 -3 4 -12 1 -19z m-280 -10 c-3 -8 -6
-5 -6 6 -1 11 2 17 5 13 3 -3 4 -12 1 -19z m171 -5 c-5 -23 -23 -20 -26 4 -3
18 0 21 13 17 9 -4 15 -13 13 -21z m-151 -20 c-3 -10 -5 -4 -5 12 0 17 2 24 5
18 2 -7 2 -21 0 -30z m-237 -33 l-7 -45 -2 55 c0 32 3 50 8 45 5 -6 5 -30 1
-55z m640 23 c-11 -17 -11 -17 -6 0 3 10 6 24 7 30 0 9 2 9 5 0 3 -7 0 -20 -6
-30z m107 5 c-3 -8 -6 -5 -6 6 -1 11 2 17 5 13 3 -3 4 -12 1 -19z m38 12 c3
-5 1 -10 -4 -10 -6 0 -11 -5 -11 -11 0 -5 5 -7 10 -4 16 10 12 0 -10 -25 -11
-13 -20 -18 -20 -12 0 6 4 13 9 16 4 3 6 17 3 31 -4 25 11 35 23 15z m38 -10
c-3 -11 -7 -20 -9 -20 -2 0 -4 9 -4 20 0 11 4 20 9 20 5 0 7 -9 4 -20z m51 5
c3 -8 1 -15 -3 -15 -10 0 -35 -58 -34 -79 1 -10 -2 -10 -10 -2 -8 8 -9 16 -1
29 7 10 15 32 19 50 7 34 19 41 29 17z m-4051 -2 c-7 -2 -19 -2 -25 0 -7 3 -2
5 12 5 14 0 19 -2 13 -5z m3604 -25 c-3 -8 -6 -5 -6 6 -1 11 2 17 5 13 3 -3 4
-12 1 -19z m54 -5 c-8 -15 -10 -15 -11 -2 0 17 10 32 18 25 2 -3 -1 -13 -7
-23z m-2861 7 c0 -5 -5 -10 -11 -10 -5 0 -7 5 -4 10 3 6 8 10 11 10 2 0 4 -4
4 -10z m2354 -57 c-3 -36 -2 -43 5 -28 8 15 10 5 9 -40 0 -33 2 -72 6 -87 3
-15 2 -30 -4 -33 -5 -3 -11 4 -11 17 -1 20 -2 20 -6 4 -3 -11 -11 -26 -19 -34
-12 -11 -14 -11 -14 2 0 8 4 17 9 21 6 3 9 13 9 23 0 9 3 26 7 36 6 14 5 17
-3 12 -7 -4 -12 -3 -12 3 0 5 6 12 13 15 7 4 8 8 2 11 -12 6 -7 125 5 125 4 0
6 -21 4 -47z m273 25 c-3 -8 -6 -5 -6 6 -1 11 2 17 5 13 3 -3 4 -12 1 -19z
m80 -25 c-3 -10 -5 -2 -5 17 0 19 2 27 5 18 2 -10 2 -26 0 -35z m548 -41 c-3
-3 -5 3 -5 14 -1 16 -3 15 -14 -6 -8 -14 -11 -29 -8 -35 4 -5 7 -16 8 -22 5
-31 30 -73 41 -68 7 2 12 1 11 -3 -1 -4 2 -15 7 -25 4 -10 5 -21 1 -24 -3 -4
-6 1 -6 10 0 10 -5 17 -11 17 -6 0 -8 -7 -5 -15 3 -8 9 -22 12 -30 3 -8 2 -15
-4 -15 -12 0 -22 24 -22 53 0 18 -2 20 -11 7 -9 -12 -10 -12 -5 4 8 23 -13 83
-31 90 -7 3 -13 0 -13 -7 -1 -30 -29 42 -30 75 0 20 -6 39 -12 41 -9 4 -8 6 2
6 9 1 23 -16 33 -36 16 -37 14 -61 -3 -33 -6 8 -10 10 -10 4 0 -6 6 -17 14
-23 14 -12 26 8 42 74 l7 30 9 -39 c4 -21 6 -41 3 -44z m-495 38 c0 -16 -4
-30 -8 -30 -5 0 -7 14 -4 30 2 17 6 30 8 30 2 0 4 -13 4 -30z m47 -17 c-3 -10
-5 -4 -5 12 0 17 2 24 5 18 2 -7 2 -21 0 -30z m-3463 7 c92 0 131 -71 124
-228 -3 -90 -6 -103 -31 -135 -55 -72 -150 -57 -188 29 -36 81 -23 272 20 298
6 4 11 15 11 24 0 12 -3 13 -12 4 -15 -15 -32 -16 -23 -1 10 15 49 28 53 18 2
-5 23 -9 46 -9z m3343 -2 c-3 -8 -6 -5 -6 6 -1 11 2 17 5 13 3 -3 4 -12 1 -19z
m145 -65 c-11 -37 -26 -93 -32 -123 -14 -63 -34 -104 -27 -55 6 37 39 164 58
223 22 67 22 31 1 -45z m158 60 c-4 -16 -18 -55 -30 -88 -12 -33 -24 -75 -27
-92 -3 -18 -9 -33 -15 -33 -5 0 -6 -4 -3 -10 3 -5 2 -10 -2 -10 -5 0 -19 -32
-32 -70 -13 -39 -26 -68 -28 -66 -3 2 18 67 45 143 28 76 53 149 57 162 11 35
35 91 39 91 3 0 1 -12 -4 -27z m147 -25 c-2 -13 -4 -5 -4 17 -1 22 1 32 4 23
2 -10 2 -28 0 -40z m-4063 12 c31 -30 29 -110 -2 -143 l-23 -24 30 -31 c26
-26 31 -38 31 -80 0 -38 -5 -55 -23 -74 -30 -33 -89 -43 -142 -26 -74 24 -98
130 -40 177 25 19 33 41 15 41 -16 0 -40 56 -40 92 0 35 21 67 55 87 30 17
115 6 139 -19z m3413 -2 c-3 -8 -6 -5 -6 6 -1 11 2 17 5 13 3 -3 4 -12 1 -19z
m-43 -47 c2 -22 -1 -38 -5 -35 -5 3 -9 24 -9 46 0 52 10 44 14 -11z m63 2 c-3
-10 -5 -4 -5 12 0 17 2 24 5 18 2 -7 2 -21 0 -30z m527 -60 c-4 -43 -10 -69
-12 -59 -5 24 8 149 15 143 3 -3 1 -41 -3 -84z m-3026 56 c15 -24 10 -34 -14
-25 -9 4 -14 12 -10 22 4 12 1 14 -13 9 -11 -3 -22 -1 -26 5 -4 6 5 10 22 10
18 0 33 -8 41 -21z m3099 -1 c-3 -8 -6 -5 -6 6 -1 11 2 17 5 13 3 -3 4 -12 1
-19z m-540 -55 c-2 -16 -4 -5 -4 22 0 28 2 40 4 28 2 -13 2 -35 0 -50z m130
25 c-3 -7 -5 -2 -5 12 0 14 2 19 5 13 2 -7 2 -19 0 -25z m47 -70 c6 -93 6 -96
-14 -91 -22 6 -27 31 -7 38 9 4 11 27 9 83 -6 110 4 86 12 -30z m546 80 c0 -7
-5 -20 -10 -28 -8 -12 -10 -9 -10 13 0 15 5 27 10 27 6 0 10 -6 10 -12z m40 2
c0 -5 -7 -10 -16 -10 -8 0 -12 5 -9 10 3 6 10 10 16 10 5 0 9 -4 9 -10z m-713
-32 c-3 -8 -6 -5 -6 6 -1 11 2 17 5 13 3 -3 4 -12 1 -19z m596 2 c3 -11 1 -18
-4 -14 -5 3 -9 12 -9 20 0 20 7 17 13 -6z m-3653 0 c0 -5 -5 -10 -11 -10 -5 0
-7 5 -4 10 3 6 8 10 11 10 2 0 4 -4 4 -10z m560 0 c0 -5 -7 -10 -15 -10 -8 0
-15 5 -15 10 0 6 7 10 15 10 8 0 15 -4 15 -10z m-105 -14 c10 -7 16 -20 12
-29 -8 -22 -71 -20 -93 4 -20 22 -16 23 21 9 33 -12 51 -4 34 16 -15 18 1 18
26 0z m2475 -6 c0 -11 -2 -20 -4 -20 -2 0 -6 9 -9 20 -3 11 -1 20 4 20 5 0 9
-9 9 -20z m117 -50 c-3 -28 -10 -57 -17 -65 -6 -8 -9 -18 -6 -23 3 -6 -2 -16
-11 -23 -14 -12 -16 -12 -11 1 16 44 28 89 33 123 9 54 17 45 12 -13z m-2504
28 c23 1 22 -21 -3 -43 -18 -17 -21 -17 -45 -1 -14 9 -25 19 -25 22 0 14 27
33 40 27 8 -3 23 -5 33 -5z m2584 -127 c-15 -6 -16 4 -9 64 l7 60 5 -60 c3
-33 1 -62 -3 -64z m663 100 c0 -6 -4 -13 -10 -16 -5 -3 -10 1 -10 9 0 9 5 16
10 16 6 0 10 -4 10 -9z m-998 -33 c-9 -9 -12 -7 -12 12 0 19 3 21 12 12 9 -9
9 -15 0 -24z m-2335 16 c-3 -3 -12 -4 -19 -1 -8 3 -5 6 6 6 11 1 17 -2 13 -5z
m2360 -41 c1 -44 0 -45 -6 -13 -6 30 -4 60 3 60 2 0 3 -21 3 -47z m773 43 c0
-3 -4 -8 -10 -11 -5 -3 -10 -1 -10 4 0 6 5 11 10 11 6 0 10 -2 10 -4z m-63
-28 c-3 -8 -6 -5 -6 6 -1 11 2 17 5 13 3 -3 4 -12 1 -19z m27 -3 c3 -8 1 -15
-4 -15 -6 0 -10 7 -10 15 0 8 2 15 4 15 2 0 6 -7 10 -15z m-654 -35 c-5 -22
-8 -27 -9 -13 -1 21 9 56 14 51 2 -2 0 -19 -5 -38z m718 4 c-4 -3 -12 5 -18
18 -12 22 -12 22 6 6 10 -10 15 -20 12 -24z m-823 17 c3 -5 1 -12 -5 -16 -5
-3 -10 1 -10 9 0 18 6 21 15 7z m181 -72 c-9 -19 -14 -25 -11 -14 2 11 7 38
12 60 6 34 8 36 11 14 2 -15 -4 -42 -12 -60z m747 75 c3 -3 3 -13 0 -21 -5
-12 -7 -12 -14 -1 -15 23 -4 40 14 22z m53 -21 c-10 -10 -19 5 -10 18 6 11 8
11 12 0 2 -7 1 -15 -2 -18z m-849 -5 c-3 -8 -6 -5 -6 6 -1 11 2 17 5 13 3 -3
4 -12 1 -19z m-140 -40 c-3 -7 -5 -2 -5 12 0 14 2 19 5 13 2 -7 2 -19 0 -25z
m407 -10 c4 18 10 31 14 28 3 -3 -1 -24 -8 -47 -12 -34 -15 -38 -22 -23 -5 11
-5 1 -2 -24 4 -26 1 -48 -6 -57 -6 -8 -9 -18 -6 -24 3 -5 -1 -12 -10 -15 -13
-5 -15 -1 -11 21 3 16 11 64 18 108 13 74 14 77 19 40 l6 -40 8 33z m-74 -4
c0 -8 -4 -12 -10 -9 -6 4 -10 -6 -9 -22 0 -25 1 -26 9 -8 8 19 9 19 9 -4 1
-17 -3 -22 -15 -17 -9 3 -18 6 -20 6 -8 0 -4 29 7 54 12 26 29 26 29 0z m457
-6 c-3 -8 -6 -5 -6 6 -1 11 2 17 5 13 3 -3 4 -12 1 -19z m-587 -33 c-7 -20
-14 -34 -17 -31 -3 2 1 20 8 40 17 46 25 38 9 -9z m670 41 c0 -3 -4 -8 -10
-11 -5 -3 -10 -1 -10 4 0 6 5 11 10 11 6 0 10 -2 10 -4z m-590 -31 c0 -8 -4
-15 -10 -15 -5 0 -7 7 -4 15 4 8 8 15 10 15 2 0 4 -7 4 -15z m709 -35 c0 -10
-3 -8 -9 5 -12 27 -12 43 0 25 5 -8 9 -22 9 -30z m-525 -101 c-19 -52 -55
-141 -80 -199 -24 -58 -48 -118 -54 -134 -6 -16 -13 -27 -15 -24 -3 2 6 32 20
66 14 34 36 90 50 124 14 34 23 71 20 82 -3 12 -2 15 1 8 4 -9 13 1 25 28 11
23 19 46 19 50 0 4 9 29 21 55 36 80 31 42 -7 -56z m-187 39 c-3 -7 -5 -2 -5
12 0 14 2 19 5 13 2 -7 2 -19 0 -25z m40 10 c-3 -8 -6 -5 -6 6 -1 11 2 17 5
13 3 -3 4 -12 1 -19z m444 -1 c-10 -9 -11 -8 -5 6 3 10 9 15 12 12 3 -3 0 -11
-7 -18z m52 -11 c4 -10 1 -13 -9 -9 -7 3 -14 9 -14 14 0 14 17 10 23 -5z
m-452 -91 c7 -14 6 -29 -1 -45 -9 -23 -10 -22 -4 8 3 18 1 32 -4 32 -6 0 -13
-26 -17 -58 -7 -62 -13 -76 -32 -79 -8 -2 -13 7 -13 22 0 14 4 25 9 25 5 0 18
32 28 70 10 39 19 65 21 58 2 -7 8 -22 13 -33z m589 -12 c0 -7 -58 36 -66 49
-4 7 9 -1 29 -16 20 -16 37 -30 37 -33z m-650 -58 c0 -8 -4 -15 -10 -15 -5 0
-7 7 -4 15 4 8 8 15 10 15 2 0 4 -7 4 -15z m-2746 -1020 c-4 -8 -11 -15 -16
-15 -6 0 -5 6 2 15 7 8 14 15 16 15 2 0 1 -7 -2 -15z m1 -135 c3 -5 -1 -10 -9
-10 -9 0 -16 5 -16 10 0 6 4 10 9 10 6 0 13 -4 16 -10z m1855 -67 c0 -15 -2
-16 -10 -3 -7 10 -13 11 -17 5 -10 -14 -73 -18 -73 -6 0 10 27 17 73 20 20 1
27 -4 27 -16z m-210 -53 c0 -5 -15 -10 -32 -9 -31 1 -32 1 -8 9 35 11 40 11
40 0z m-622 -57 c-10 -2 -26 -2 -35 0 -10 3 -2 5 17 5 19 0 27 -2 18 -5z m52
-3 c0 -5 -8 -10 -17 -10 -15 0 -16 2 -3 10 19 12 20 12 20 0z m1647 -32 c7 20
39 14 51 -10 7 -15 11 -17 9 -6 -1 9 3 18 8 20 6 2 13 -41 17 -107 9 -133 31
-273 64 -415 90 -384 122 -509 180 -705 13 -43 20 -82 16 -86 -15 -13 -246
-41 -497 -59 -494 -36 -875 -73 -875 -85 0 -7 13 -10 33 -8 24 3 29 2 17 -6
-8 -6 -10 -11 -4 -11 6 0 11 -14 11 -31 0 -17 6 -35 14 -40 12 -8 12 -10 0
-18 -9 -6 -10 -11 -2 -15 6 -4 9 -12 6 -17 -4 -5 -2 -9 3 -9 6 0 8 -9 5 -20
-3 -11 0 -20 6 -20 6 0 11 -5 11 -11 0 -5 -5 -7 -11 -3 -8 4 -9 -3 -4 -26 5
-23 3 -35 -6 -41 -11 -7 -12 -11 -1 -17 7 -5 10 -16 6 -25 -5 -13 0 -17 17
-18 21 -1 20 -2 -6 -9 -20 -5 -24 -8 -10 -9 17 -1 18 -3 5 -11 -12 -8 -12 -10
5 -11 20 0 20 -1 0 -8 -19 -8 -19 -8 0 -19 20 -11 20 -11 0 -13 -14 -1 -11 -4
10 -9 23 -6 25 -8 8 -9 -30 -1 -40 -21 -11 -21 13 0 19 -4 13 -8 -15 -11 -17
-42 -3 -42 19 -1 -10 -16 -45 -24 -33 -8 -28 9 7 25 17 8 16 8 -8 4 -26 -6
-28 -4 -17 9 11 14 11 16 -5 17 -15 0 -14 3 6 11 19 8 22 12 10 17 -17 7 -25
31 -10 31 5 0 10 5 10 10 0 6 -7 10 -15 10 -8 0 -15 8 -14 18 0 10 3 12 6 5
18 -45 28 48 10 97 -3 8 -10 29 -15 45 -5 17 -15 29 -21 27 -6 -1 -11 6 -11
15 0 15 -2 16 -10 3 -6 -9 -10 -10 -10 -3 0 7 7 16 15 20 10 6 14 20 11 43 -2
19 -4 43 -5 52 0 9 -11 19 -23 21 -20 4 -19 4 5 6 15 0 27 6 27 12 0 5 -3 8
-7 6 -5 -3 -17 -1 -28 4 -17 6 -17 8 -2 8 9 1 17 6 17 11 0 12 -87 13 -205 0
-49 -5 -135 -11 -190 -15 -133 -7 -226 -15 -246 -21 -19 -5 -23 40 -39 411
-17 412 -21 590 -12 578 6 -9 16 -9 45 1 21 7 54 12 75 11 37 -1 80 24 54 33
-6 2 -12 8 -12 13 0 5 11 3 25 -3 14 -6 25 -15 25 -21 0 -5 14 -7 30 -5 17 3
33 1 36 -4 10 -16 25 -8 19 11 -3 11 -1 22 4 25 15 9 52 -17 46 -31 -2 -7 0
-13 4 -13 19 0 17 25 -3 42 -15 13 -17 16 -4 12 13 -4 15 -1 11 15 -5 18 -8
19 -21 9 -12 -10 -14 -10 -8 0 4 7 1 12 -8 12 -20 0 -21 16 -2 23 14 6 82 -61
78 -76 -1 -5 2 -6 8 -2 5 3 19 0 31 -8 13 -9 16 -17 10 -22 -6 -3 -11 -10 -11
-16 0 -5 23 3 52 17 42 21 67 27 126 28 50 0 76 -4 81 -13 5 -7 11 -12 15 -11
3 1 19 -1 34 -5 l28 -6 -4 -114 c-4 -90 -1 -123 12 -155 9 -22 16 -56 16 -75
0 -18 4 -36 10 -40 5 -3 -9 -24 -30 -45 -22 -22 -40 -44 -40 -50 0 -12 66 -7
103 8 37 16 42 15 27 -3 -10 -12 -10 -15 4 -15 9 0 16 5 16 10 0 6 5 10 10 10
6 0 20 9 32 20 13 12 36 20 57 20 34 0 34 0 15 -18 -10 -10 -28 -23 -39 -30
-19 -10 -19 -11 4 -20 35 -13 126 5 196 38 44 21 81 30 140 34 44 3 112 13
150 21 39 8 108 18 155 21 59 5 77 10 60 15 -19 5 -14 7 20 7 25 0 63 4 85 9
38 9 36 10 -45 17 -118 10 -385 12 -442 4 -52 -7 -55 -4 -33 38 8 16 15 37 15
47 0 9 5 17 10 17 6 0 10 6 10 13 0 7 11 37 25 65 14 29 25 59 25 67 0 8 4 15
8 15 9 0 16 14 45 80 24 53 25 185 3 242 -22 57 -84 104 -152 114 -52 7 -62
18 -39 41 14 14 21 14 37 4 16 -10 22 -8 38 11 18 22 19 22 20 3 1 -19 2 -19
17 3 8 12 22 22 29 22 17 0 18 -12 2 -28 -9 -9 -8 -12 5 -12 9 0 17 6 17 14 0
17 33 31 38 17 4 -13 39 -14 44 -2 2 5 23 11 46 14 24 2 47 8 50 14 5 8 21 8
56 0 41 -9 50 -9 60 4 16 22 39 28 55 15 11 -8 15 -8 18 2z m-690 -80 c-3 -8
-6 -5 -6 6 -1 11 2 17 5 13 3 -3 4 -12 1 -19z m68 -22 c16 -14 46 -28 67 -31
73 -13 143 -44 171 -77 28 -33 36 -60 16 -55 -6 1 -14 -4 -16 -10 -3 -8 4 -13
16 -13 20 0 21 -6 21 -79 0 -72 -3 -86 -36 -148 -35 -67 -73 -117 -82 -109 -2
3 6 19 18 35 13 19 19 39 15 50 -4 12 4 29 25 51 26 28 28 33 15 47 -8 8 -15
20 -15 26 0 7 -11 -1 -25 -16 -30 -31 -32 -32 -32 -12 0 8 4 12 8 9 5 -3 14 4
21 16 7 11 21 20 31 20 14 0 17 5 12 19 -3 11 -1 22 5 26 5 3 10 11 10 17 0 7
-4 7 -13 -1 -8 -6 -16 -9 -19 -6 -3 3 -13 -5 -24 -17 -18 -20 -18 -21 -1 -15
11 4 16 3 12 -3 -3 -6 -11 -10 -16 -10 -15 0 -90 -76 -83 -83 4 -4 14 -1 22 6
9 6 5 -3 -8 -20 -13 -18 -32 -33 -42 -33 -11 0 -16 5 -13 10 4 6 10 8 15 5 4
-3 13 2 19 9 10 11 9 16 -4 23 -13 8 -8 16 30 48 25 21 45 46 45 55 0 14 38
46 51 43 3 -1 6 5 6 13 0 8 -1 14 -2 14 -1 0 -35 -25 -76 -55 -40 -31 -85 -58
-99 -61 -14 -3 -41 -9 -60 -15 -19 -5 -71 -11 -115 -14 -44 -2 -98 -10 -120
-16 -22 -6 -58 -13 -79 -16 -33 -5 -38 -3 -33 11 5 12 0 15 -20 14 -15 -2 -28
3 -31 11 -3 8 -16 25 -30 38 -14 13 -22 23 -18 23 14 0 66 -31 66 -39 0 -10
67 -22 115 -21 65 1 84 3 79 11 -2 4 11 15 30 24 20 9 38 25 41 35 3 9 14 25
24 34 11 10 17 25 14 36 -5 18 -7 18 -61 -1 -31 -11 -62 -17 -69 -15 -7 3 -23
-8 -35 -24 -28 -38 -51 -38 -65 0 -6 17 -8 30 -3 30 14 0 21 33 9 44 -9 8 -10
6 -5 -8 5 -16 4 -17 -9 -6 -18 15 -14 22 17 25 38 4 39 5 33 15 -4 6 6 10 22
9 15 0 22 -3 16 -6 -7 -2 -13 -9 -13 -15 0 -6 7 -5 16 3 14 12 14 14 -3 27
-17 13 -17 14 2 12 33 -4 38 -1 25 15 -11 13 -16 13 -44 -1 -28 -14 -29 -13
-12 1 11 8 23 15 27 15 4 0 11 9 14 20 4 11 11 18 16 15 5 -4 10 2 10 12 1 17
2 17 6 0 3 -11 -3 -25 -14 -33 -13 -10 -14 -13 -2 -9 9 3 22 -1 29 -10 14 -17
36 -20 45 -5 4 6 3 9 -2 8 -4 -2 -8 -1 -9 2 0 3 -6 15 -13 28 -7 14 -8 22 -1
22 5 0 10 -7 10 -15 0 -8 2 -15 4 -15 2 0 10 -2 18 -5 9 -4 14 3 15 22 1 23 0
24 -6 9 -4 -11 -10 -15 -13 -10 -4 5 0 17 7 27 10 14 14 15 18 5 4 -10 8 -10
16 2 5 8 13 11 17 7 4 -3 2 -13 -5 -21 -9 -10 -8 -15 2 -19 9 -3 20 5 27 18 7
14 17 22 22 19 4 -3 8 -1 8 5 0 5 -6 12 -12 14 -8 3 -8 6 -2 6 6 1 24 -10 39
-23z m58 17 c-7 -2 -19 -2 -25 0 -7 3 -2 5 12 5 14 0 19 -2 13 -5z m-448 -94
c7 -20 7 -20 22 -2 8 10 11 11 7 3 -4 -8 -16 -25 -27 -37 -18 -20 -18 -23 -4
-23 9 0 16 5 15 11 -2 7 16 13 42 15 40 3 42 2 20 -8 -14 -6 -31 -10 -38 -9
-15 2 -11 -31 8 -56 12 -15 12 -16 0 -5 -8 6 -22 12 -32 12 -10 0 -18 5 -18
11 0 6 -7 8 -15 5 -11 -4 -15 0 -13 12 2 12 -4 17 -22 19 -58 3 -56 3 -40 12
8 6 18 7 24 4 5 -3 7 -2 3 3 -3 5 1 17 8 27 12 17 14 17 27 -2 18 -25 32 -16
17 10 -6 12 -6 19 0 19 5 0 13 -9 16 -21z m-121 -1 c-5 -8 -1 -9 12 -4 14 5
16 4 7 -5 -13 -13 -37 -3 -28 12 4 5 8 9 11 9 3 0 2 -5 -2 -12z m-109 -17 c-3
-5 4 -13 16 -16 19 -6 20 -7 2 -21 -16 -12 -16 -13 -1 -14 9 0 19 9 23 19 7
22 45 35 60 20 7 -7 4 -8 -10 -4 -17 6 -18 5 -5 -7 8 -7 14 -23 12 -35 -4 -26
-73 -78 -118 -89 -27 -7 -28 -6 -14 11 14 17 14 17 -7 7 -17 -9 -22 -9 -27 3
-8 21 -26 19 -27 -2 -1 -17 -2 -17 -6 0 -7 28 -33 20 -33 -10 0 -26 -3 -28
-45 -29 -39 -1 -44 1 -33 13 7 8 23 13 38 11 21 -3 26 0 27 17 1 11 -1 14 -4
8 -3 -7 -9 -13 -14 -13 -6 0 -5 8 1 20 6 11 8 25 5 30 -4 6 -3 10 2 9 20 -3
27 2 13 11 -12 7 -11 9 5 9 40 1 55 5 55 13 0 5 5 6 10 3 8 -5 7 -12 -2 -23
-11 -13 -11 -14 2 -10 10 3 14 16 12 38 -2 32 -2 33 16 17 24 -22 29 -21 35 3
3 11 8 20 12 20 3 0 4 -4 0 -9z m-486 -48 c-4 -23 3 -33 21 -33 11 0 20 -4 20
-10 0 -5 -9 -10 -20 -10 -11 0 -20 -6 -20 -14 0 -8 -3 -23 -6 -33 -5 -17 -5
-17 6 0 7 11 24 17 45 17 19 0 35 5 35 11 0 5 5 7 11 3 15 -9 -9 -24 -38 -24
-23 0 -63 -32 -63 -50 0 -5 8 -14 18 -19 9 -6 11 -11 5 -11 -7 0 -13 -11 -13
-25 0 -14 -5 -25 -11 -25 -14 0 -10 162 5 173 8 6 8 10 -1 14 -15 6 -17 43 -3
43 6 0 9 -3 9 -7z m309 -10 c-10 -2 -26 -2 -35 0 -10 3 -2 5 17 5 19 0 27 -2
18 -5z m-68 -22 c0 -5 -6 -14 -14 -20 -10 -8 -16 -8 -25 2 -6 8 -8 17 -4 20 9
10 43 8 43 -2z m-60 -5 c0 -3 -4 -8 -10 -11 -5 -3 -10 -1 -10 4 0 6 5 11 10
11 6 0 10 -2 10 -4z m110 -17 c0 -12 -37 -12 -44 0 -3 4 -3 11 0 14 8 7 44 -4
44 -14z m452 -17 c18 -18 18 -19 -28 -17 -27 1 -49 6 -52 13 -5 15 -29 16 -37
1 -4 -6 0 -9 11 -7 11 2 18 -2 17 -9 -2 -8 4 -10 15 -7 14 5 14 4 2 -4 -10 -8
-18 -8 -27 -1 -6 6 -21 8 -32 4 -10 -3 -22 -1 -26 5 -4 7 -12 7 -25 0 -26 -14
-34 -13 -18 3 16 14 55 37 63 37 4 0 3 -6 0 -12 -3 -7 0 -5 7 5 11 15 22 18
62 13 29 -3 58 -13 68 -24z m248 -4 c-6 -7 -20 -25 -33 -40 -29 -35 -173 -91
-153 -60 3 5 -11 8 -30 7 -25 -2 -41 4 -57 21 -12 13 -28 24 -36 24 -27 0 -4
10 36 16 35 5 40 3 51 -21 11 -23 16 -26 40 -20 15 4 39 8 55 8 15 0 27 5 27
9 0 5 -10 6 -21 3 -21 -7 -21 -6 -6 16 18 24 52 35 62 19 3 -6 12 -10 18 -10
7 0 6 4 -3 10 -12 7 -10 11 10 19 37 14 53 14 40 -1z m-737 -15 c-7 -2 -21 -2
-30 0 -10 3 -4 5 12 5 17 0 24 -2 18 -5z m332 -42 c-5 -18 -10 -19 -27 -10
-11 6 -22 8 -25 6 -2 -3 6 -8 18 -12 22 -7 22 -8 4 -21 -10 -8 -14 -14 -8 -14
6 0 16 7 23 15 7 8 16 12 21 9 5 -3 6 2 3 10 -3 9 -2 16 4 16 15 0 58 -37 51
-45 -4 -3 -39 -9 -78 -14 -70 -7 -70 -7 -65 16 4 14 2 23 -6 23 -6 0 -10 7 -8
16 3 18 54 29 63 13 12 -18 23 -9 18 14 -5 17 -3 19 7 11 7 -7 9 -21 5 -33z
m-471 14 c-4 -8 -10 -15 -15 -15 -5 0 -9 7 -9 15 0 8 7 15 15 15 9 0 12 -6 9
-15z m96 6 c0 -5 -13 -11 -30 -13 -29 -4 -37 1 -23 15 10 10 53 8 53 -2z
m-130 -11 c0 -5 -3 -10 -7 -10 -5 0 -18 -3 -30 -6 -13 -4 -23 -2 -23 4 0 10
19 18 48 21 6 0 12 -3 12 -9z m378 -17 c23 -21 41 -80 20 -67 -7 5 -17 9 -23
10 -24 3 -31 5 -49 19 -19 15 -19 15 0 34 24 25 27 25 52 4z m797 -2 c-3 -6
-11 -11 -17 -11 -6 0 -6 6 2 15 14 17 26 13 15 -4z m-1080 -11 c-3 -5 1 -10 9
-10 16 0 31 -18 23 -26 -3 -3 -14 1 -26 8 -22 13 -29 38 -10 38 5 0 7 -4 4
-10z m-79 -14 c12 -13 12 -16 -3 -24 -14 -9 -15 -13 -4 -26 20 -23 -3 -20 -24
4 -16 18 -16 20 -2 20 20 0 23 26 5 33 -10 4 -10 6 0 6 7 1 20 -5 28 -13z
m174 -26 c0 -5 -2 -10 -4 -10 -3 0 -8 5 -11 10 -3 6 -1 10 4 10 6 0 11 -4 11
-10z m905 -13 c-8 -13 -13 -26 -10 -29 3 -3 -2 -11 -11 -19 -16 -13 -17 -12
-11 11 4 14 7 31 7 38 0 7 4 11 9 7 5 -3 12 -1 16 5 3 5 8 10 11 10 2 0 -2
-10 -11 -23z m-935 3 c0 -5 -5 -10 -11 -10 -5 0 -7 5 -4 10 3 6 8 10 11 10 2
0 4 -4 4 -10z m896 -29 c-1 -21 -6 -42 -9 -48 -10 -16 -25 -92 -19 -97 5 -6
31 24 32 37 0 5 -4 5 -10 2 -11 -7 -2 23 13 43 13 16 24 15 31 -4 3 -8 2 -13
-3 -10 -5 3 -15 -2 -22 -11 -13 -15 -11 -16 11 -10 22 5 19 1 -17 -34 -24 -22
-43 -47 -43 -57 1 -24 28 -120 29 -102 1 9 10 16 21 16 24 0 25 -4 3 -28 -9
-10 -17 -38 -18 -63 l-2 -44 28 20 c16 11 29 26 29 32 1 7 7 -1 14 -18 22 -52
10 -55 -193 -52 l-182 2 2 25 c2 14 -3 36 -11 50 -29 53 -47 163 -39 238 10
96 23 108 119 116 120 10 198 21 206 29 20 20 34 5 30 -32z m174 25 c0 -2 -8
-10 -17 -17 -16 -13 -17 -12 -4 4 13 16 21 21 21 13z m-61 -147 c-35 -50 -108
-123 -115 -116 -5 5 123 147 134 147 2 0 -7 -14 -19 -31z m-126 -69 c-3 -11
-7 -20 -9 -20 -2 0 -4 9 -4 20 0 11 4 20 9 20 5 0 7 -9 4 -20z m125 -15 c-13
-19 -29 -35 -37 -35 -11 0 -11 3 0 17 13 17 51 52 57 53 1 0 -8 -16 -20 -35z
m250 -145 l27 -1 -25 -14 c-21 -12 -22 -14 -6 -15 35 0 9 -11 -39 -15 -26 -3
-52 -8 -58 -12 -13 -8 -21 -9 -104 -19 -35 -4 -63 -4 -63 0 0 3 25 22 55 41
54 35 79 45 58 24 -9 -9 -8 -15 2 -25 11 -12 20 -12 52 0 21 7 43 11 50 9 6
-2 14 1 19 8 5 8 -2 10 -25 5 -17 -3 -45 -9 -62 -12 -23 -5 -30 -3 -25 5 4 6
12 9 17 5 5 -3 15 -1 22 4 16 13 48 21 65 16 8 -2 26 -4 40 -4z m112 -20 c-34
-11 -60 -11 -35 0 11 5 29 8 40 8 16 0 15 -2 -5 -8z m-732 -70 c41 0 44 -1 27
-14 -13 -9 -29 -11 -54 -5 -28 6 -42 4 -68 -12 -40 -25 -42 -19 -5 16 15 14
33 23 40 20 8 -3 34 -5 60 -5z m292 -7 c0 -6 -52 -25 -107 -38 -57 -14 -74 -4
-44 27 12 13 32 17 84 16 37 0 67 -2 67 -5z m-2035 -45 c15 -61 10 -178 -7
-178 -10 0 -13 27 -13 100 -1 94 8 128 20 78z m-297 -30 c2 -11 -3 -18 -12
-18 -9 0 -16 5 -16 10 0 6 -7 10 -15 10 -27 0 -16 -29 13 -32 29 -3 39 -29 28
-74 -5 -19 -13 -24 -40 -24 -39 0 -46 12 -46 75 0 66 7 77 49 73 25 -2 37 -8
39 -20z m-548 -74 c0 -74 -2 -85 -16 -82 -13 2 -17 18 -19 78 -2 83 0 90 21
90 11 0 14 -18 14 -86z m656 68 c33 -22 24 -109 -12 -118 -34 -9 -54 12 -54
57 0 52 33 83 66 61z m114 -14 c0 -13 -7 -32 -15 -42 -19 -25 -19 -36 0 -36 8
0 15 -4 15 -10 0 -5 -13 -10 -30 -10 -35 0 -34 -2 -15 43 8 20 15 41 15 47 0
5 -7 10 -15 10 -8 0 -15 5 -15 10 0 6 14 10 30 10 25 0 30 -4 30 -22z m-984
-88 c0 -70 -3 -100 -12 -100 -23 0 -33 125 -14 174 18 49 26 26 26 -74z m448
74 c23 -22 20 -26 -14 -19 -24 5 -29 4 -24 -8 3 -8 14 -17 25 -20 16 -4 20
-12 17 -34 -2 -22 -9 -29 -31 -31 -18 -2 -29 2 -33 13 -9 22 2 30 20 16 10 -8
16 -9 21 -2 3 6 -5 16 -19 23 -31 14 -37 64 -8 71 29 8 30 8 46 -9z m123 1 c8
-22 -4 -30 -22 -15 -9 8 -15 8 -15 2 0 -6 9 -17 21 -25 30 -21 22 -61 -12 -65
-30 -4 -59 22 -35 31 9 4 18 2 21 -3 8 -13 25 -13 25 0 0 6 -11 15 -24 20 -31
11 -36 20 -25 48 10 26 56 31 66 7z m-242 -59 l0 -60 -35 0 c-31 -1 -35 2 -38
26 -3 22 2 29 22 34 25 6 39 44 16 44 -5 0 -10 -4 -10 -10 0 -5 -7 -10 -15
-10 -8 0 -15 4 -15 10 0 14 32 30 55 27 17 -2 20 -9 20 -61z m-195 -28 c0 -74
-1 -78 -25 -84 -14 -3 -32 -4 -40 0 -19 7 -20 36 0 36 8 0 15 -4 15 -10 0 -5
5 -10 10 -10 6 0 10 9 10 20 0 15 -7 20 -25 20 -23 0 -25 3 -25 48 0 27 3 51
6 54 3 3 21 6 40 5 l34 -1 0 -78z m2480 -418 c0 -5 -5 -10 -11 -10 -5 0 -7 5
-4 10 3 6 8 10 11 10 2 0 4 -4 4 -10z m40 -177 c0 -12 -5 -25 -12 -29 -7 -4
-8 -3 -4 5 4 7 -2 15 -16 20 -21 9 -21 10 -3 11 11 1 15 4 8 7 -10 3 -10 7 0
18 15 15 27 1 27 -32z m10 -53 c0 -5 -7 -10 -15 -10 -8 0 -15 5 -15 10 0 6 7
10 15 10 8 0 15 -4 15 -10z m0 -24 c0 -11 -19 -15 -25 -6 -3 5 1 10 9 10 9 0
16 -2 16 -4z m83 -193 c-19 -7 -16 -23 5 -24 28 -2 -29 -17 -63 -17 l-30 0 33
9 c39 12 43 24 5 14 -18 -4 -25 -3 -18 3 11 11 40 19 65 20 10 0 11 -1 3 -5z
m2 -63 c-3 -5 -15 -10 -25 -10 -10 0 -22 5 -25 10 -4 6 7 10 25 10 18 0 29 -4
25 -10z m-25 -30 c0 -5 -10 -10 -22 -9 -22 0 -22 1 -3 9 11 5 21 9 23 9 1 1 2
-3 2 -9z m250 -10 c0 -5 -9 -10 -21 -10 -11 0 -17 5 -14 10 3 6 13 10 21 10 8
0 14 -4 14 -10z"/>
<path d="M70 4300 c0 -5 6 -10 14 -10 8 0 18 5 21 10 3 6 -3 10 -14 10 -12 0
-21 -4 -21 -10z"/>
<path d="M4341 4434 c0 -11 3 -14 6 -6 3 7 2 16 -1 19 -3 4 -6 -2 -5 -13z"/>
<path d="M479 4028 c-17 -42 -18 -181 -1 -229 14 -40 43 -55 73 -38 32 16 41
49 41 139 0 96 -18 150 -51 150 -11 0 -26 2 -34 6 -9 3 -19 -6 -28 -28z"/>
<path d="M138 4063 c-47 -12 -19 -105 35 -111 27 -3 57 28 57 60 0 39 -44 64
-92 51z"/>
<path d="M138 3877 c-50 -42 -44 -110 10 -121 91 -20 126 79 45 126 -28 16
-30 16 -55 -5z"/>
<path d="M2300 1540 c0 -5 5 -10 10 -10 6 0 10 5 10 10 0 6 -4 10 -10 10 -5 0
-10 -4 -10 -10z"/>
<path d="M3644 1119 c-20 -10 -51 -75 -41 -86 3 -3 12 8 21 24 22 44 43 58 61
43 9 -7 18 -10 22 -6 4 3 -2 13 -13 21 -22 17 -23 17 -50 4z"/>
<path d="M3888 1112 c-66 -40 -62 -156 5 -124 21 10 21 11 -6 11 -15 1 -30 7
-33 15 -7 19 20 71 48 90 30 21 19 28 -14 8z"/>
<path d="M3269 1113 c-1 -5 0 -20 1 -36 1 -15 -2 -27 -7 -26 -19 3 -33 -2 -33
-11 0 -6 6 -10 13 -9 26 3 38 -1 31 -12 -4 -8 -9 -7 -16 2 -8 11 -9 10 -5 -3
4 -10 -1 -18 -15 -21 -19 -6 -20 -3 -15 49 3 30 2 54 -3 54 -18 0 -26 -61 -14
-107 7 -26 26 -30 44 -8 7 8 24 15 39 15 l26 -1 -22 -18 c-42 -35 -22 -96 25
-75 14 6 12 8 -10 12 -37 4 -35 14 7 51 38 33 45 47 18 37 -11 -4 -8 2 7 14
27 21 21 26 -12 9 -20 -11 -20 -9 -14 27 5 26 4 36 -3 29 -5 -5 -11 -26 -14
-45 -3 -24 -4 -17 -5 23 -1 31 -6 57 -12 57 -5 0 -10 -3 -11 -7z"/>
<path d="M3950 1068 c0 -59 11 -118 21 -118 5 0 9 7 9 15 0 8 10 25 21 36 l22
22 -27 -7 c-26 -6 -26 -5 -26 44 0 27 -4 50 -10 50 -5 0 -10 -19 -10 -42z"/>
<path d="M3470 1048 c0 -49 9 -59 30 -34 6 8 19 17 28 19 9 3 2 3 -16 1 -27
-2 -32 0 -28 14 3 9 1 24 -4 32 -7 11 -10 2 -10 -32z"/>
<path d="M2498 1031 c-20 -27 -35 -51 -32 -54 3 -2 21 -1 40 3 44 10 44 -4 2
-42 l-33 -28 28 6 c23 5 27 3 27 -14 0 -17 5 -20 27 -16 33 6 43 12 43 26 0 6
-7 7 -17 3 -10 -4 -23 -9 -30 -12 -13 -5 -7 58 9 90 8 16 5 17 -34 11 l-43 -7
34 36 c27 29 37 34 48 25 15 -12 28 -5 18 11 -15 26 -51 10 -87 -38z"/>
<path d="M2742 1073 c-22 -9 -1 -23 25 -17 26 7 26 6 21 -39 -3 -26 -2 -44 3
-41 5 3 9 27 9 55 0 44 -2 49 -22 48 -13 0 -29 -3 -36 -6z"/>
<path d="M3731 1062 c-14 -27 -14 -65 1 -80 16 -16 25 -15 32 4 3 8 2 13 -3
10 -18 -12 -32 21 -21 49 13 33 6 45 -9 17z"/>
<path d="M2408 1063 c-9 -16 4 -163 14 -163 6 0 8 30 3 82 -6 83 -9 96 -17 81z"/>
<path d="M2951 1038 c-8 -13 -13 -40 -13 -60 1 -21 -3 -38 -8 -38 -6 0 -10 -4
-10 -10 0 -18 25 -11 38 11 8 12 9 18 3 14 -7 -4 -11 5 -11 23 0 21 6 31 20
35 12 3 20 14 20 26 0 28 -22 27 -39 -1z m29 2 c0 -5 -5 -10 -11 -10 -5 0 -7
5 -4 10 3 6 8 10 11 10 2 0 4 -4 4 -10z"/>
<path d="M3650 1042 c-23 -10 -30 -17 -19 -19 21 -5 69 14 69 27 0 13 -7 12
-50 -8z"/>
<path d="M3795 1023 c8 -42 24 -77 32 -69 8 8 -20 106 -30 106 -5 0 -6 -16 -2
-37z"/>
<path d="M2312 1041 c-8 -4 -16 -26 -18 -47 -3 -22 -7 -45 -9 -52 -3 -7 7 -18
20 -24 33 -15 61 10 70 63 10 57 -22 87 -63 60z m41 -50 c-2 -47 -26 -60 -33
-18 -8 41 -1 59 19 55 11 -3 16 -13 14 -37z"/>
<path d="M3040 1035 c-1 -5 -1 -26 0 -45 2 -47 20 -65 19 -19 0 33 -16 84 -19
64z"/>
<path d="M2848 1024 c-11 -11 -10 -92 1 -99 5 -3 13 5 17 17 3 12 16 30 28 40
11 9 16 17 9 18 -6 0 -15 -4 -18 -10 -11 -18 -24 -11 -27 16 -2 14 -6 22 -10
18z"/>
<path d="M3405 1011 c-7 -12 12 -24 25 -16 11 7 4 25 -10 25 -5 0 -11 -4 -15
-9z"/>
<path d="M3642 1001 c-8 -4 -14 -24 -15 -42 -2 -31 0 -34 28 -34 28 0 30 2 30
40 0 41 -16 54 -43 36z m38 -35 c0 -8 -7 -17 -16 -20 -23 -9 -24 -8 -24 14 0
13 7 20 20 20 11 0 20 -6 20 -14z"/>
<path d="M2746 961 c5 -34 4 -41 -10 -41 -9 0 -16 -7 -16 -15 0 -8 7 -15 15
-15 8 0 15 5 15 10 0 6 10 15 23 20 17 7 18 9 5 9 -13 1 -18 9 -18 30 0 17 -5
33 -10 36 -7 4 -8 -8 -4 -34z"/>
<path d="M3479 975 c-35 -23 -58 -55 -39 -55 5 0 21 5 36 10 25 10 26 9 13 -7
-12 -15 -12 -16 4 -10 10 4 26 7 35 7 22 0 48 17 40 25 -3 4 -16 2 -27 -5 -12
-6 -21 -7 -21 -1 0 5 7 12 16 15 8 3 13 10 9 16 -3 5 -19 1 -38 -10 -47 -29
-57 -24 -17 10 42 35 38 37 -11 5z"/>
<path d="M4037 935 c-9 -8 -14 -22 -10 -31 4 -11 9 -8 19 12 17 32 12 41 -9
19z"/>
<path d="M3147 1952 c-10 -10 -14 -22 -10 -25 10 -10 46 -8 63 4 11 8 6 9 -20
4 l-35 -6 24 21 c15 13 18 20 9 20 -8 0 -22 -8 -31 -18z"/>
<path d="M3205 1960 c-3 -5 -1 -10 4 -10 6 0 11 5 11 10 0 6 -2 10 -4 10 -3 0
-8 -4 -11 -10z"/>
<path d="M3270 1957 c0 -7 -13 -21 -30 -30 -16 -10 -30 -15 -30 -12 0 3 -12
-6 -27 -20 -15 -14 -31 -26 -35 -26 -5 -1 -14 -2 -20 -3 -7 0 -14 -7 -14 -13
-1 -7 -2 -19 -3 -26 -1 -14 -77 -118 -95 -130 -19 -13 48 5 71 19 12 8 29 11
37 8 20 -8 86 15 86 29 0 7 4 6 10 -3 5 -8 10 -10 11 -5 1 6 2 16 3 22 0 7 17
30 36 50 19 21 44 49 55 62 18 21 18 24 3 18 -10 -4 -18 -2 -18 2 0 15 23 19
36 7 8 -8 9 -17 2 -30 -17 -32 13 -40 40 -9 27 32 21 44 -9 17 -22 -19 -22
-19 -10 4 7 12 9 27 6 32 -3 6 -1 10 6 10 7 0 9 3 5 8 -10 9 -56 10 -50 0 2
-4 -5 -12 -17 -19 -17 -8 -23 -8 -29 1 -4 7 -14 9 -21 6 -8 -4 -4 1 9 12 26
24 28 32 7 32 -8 0 -15 -6 -15 -13z m-81 -179 c-13 -24 -38 -47 -52 -48 -7 0
53 69 61 70 1 0 -3 -10 -9 -22z"/>
<path d="M2960 1862 c0 -6 -7 -9 -17 -5 -11 4 -14 3 -9 -5 4 -8 -2 -16 -16
-21 -22 -9 -22 -10 -2 -10 22 -1 62 35 51 46 -4 3 -7 1 -7 -5z"/>
<path d="M2890 1850 c0 -5 7 -7 15 -4 8 4 15 8 15 10 0 2 -7 4 -15 4 -8 0 -15
-4 -15 -10z"/>
<path d="M3320 1840 c-7 -4 -10 -13 -6 -19 4 -6 2 -9 -6 -6 -16 6 -58 -26 -61
-45 -4 -24 -18 -41 -28 -35 -5 4 -9 1 -9 -4 0 -23 40 -2 98 53 18 17 36 30 40
28 4 -2 8 3 10 11 4 18 -20 28 -38 17z m-30 -48 c0 -4 -10 -13 -22 -21 -23
-14 -23 -14 -4 8 20 22 26 25 26 13z"/>
<path d="M2872 1809 c2 -7 12 -13 21 -15 23 -3 21 3 -4 17 -17 8 -20 8 -17 -2z"/>
<path d="M2633 1886 c4 -9 -1 -17 -11 -19 -15 -4 -15 -5 1 -6 12 -1 16 -6 11
-13 -4 -7 -3 -9 1 -5 14 12 17 57 4 57 -6 0 -9 -6 -6 -14z"/>
<path d="M2450 1870 c-8 -6 -11 -10 -6 -10 5 0 3 -7 -4 -15 -11 -13 -10 -14 3
-9 14 5 31 33 24 40 -1 2 -9 -1 -17 -6z"/>
<path d="M2516 1864 c-4 -9 -5 -18 -4 -19 55 -37 92 -51 52 -19 -10 8 -14 13
-7 10 6 -4 14 -2 17 3 3 5 -1 11 -9 15 -8 3 -15 1 -15 -4 0 -6 -5 -10 -11 -10
-6 0 -8 9 -4 20 8 24 -10 27 -19 4z"/>
<path d="M2487 1831 c24 -23 33 -26 33 -13 0 5 -12 14 -27 21 l-28 13 22 -21z"/>
<path d="M2988 1773 c10 -4 10 -8 1 -19 -7 -8 -7 -14 -1 -14 12 0 23 26 15 34
-4 3 -11 6 -17 5 -6 0 -5 -3 2 -6z"/>
<path d="M2786 1758 c3 -4 12 -8 20 -8 8 0 14 4 14 8 0 4 -9 8 -19 8 -11 0
-17 -4 -15 -8z"/>
<path d="M2529 1731 c9 -6 10 -11 2 -15 -6 -4 -11 -12 -11 -19 0 -6 6 -2 14 8
15 21 12 35 -7 35 -8 0 -8 -3 2 -9z"/>
<path d="M866 1073 c-12 -13 -6 -53 9 -53 9 0 15 9 15 24 0 26 -12 40 -24 29z"/>
<path d="M990 1066 c0 -26 4 -36 16 -36 11 0 14 8 12 32 -4 46 -28 49 -28 4z"/>
<path d="M440 1015 c0 -8 5 -15 10 -15 6 0 10 7 10 15 0 8 -4 15 -10 15 -5 0
-10 -7 -10 -15z"/>
<path d="M247 1063 c-11 -10 -8 -63 3 -63 6 0 10 16 10 35 0 36 -2 40 -13 28z"/>
<path d="M3171 4589 c-1 -18 45 -139 58 -152 5 -5 7 -17 4 -26 -5 -13 -3 -14
8 -3 11 10 11 17 -2 45 -22 44 -56 119 -62 137 -5 13 -6 13 -6 -1z"/>
<path d="M3193 4588 c21 -53 62 -144 67 -148 11 -10 12 -52 0 -45 -7 5 -9 -2
-4 -22 11 -48 26 -62 19 -19 -6 37 -5 39 11 25 16 -13 16 -12 5 9 -13 24 -9
52 8 52 5 0 9 -10 10 -22 1 -28 1 -109 0 -163 -1 -46 21 -135 33 -135 18 0 13
269 -5 287 -4 3 -7 22 -7 41 0 19 -5 53 -12 75 -10 32 -13 36 -19 21 -6 -13
-7 -8 -6 16 2 34 0 35 -35 38 -28 2 -37 -1 -41 -15 -4 -17 -5 -17 -6 0 0 9 -6
17 -12 17 -6 0 -9 -6 -6 -12z m74 -70 c-3 -8 -6 -5 -6 6 -1 11 2 17 5 13 3 -3
4 -12 1 -19z m13 -44 c0 -14 -4 -23 -9 -20 -5 3 -7 15 -4 26 7 28 13 25 13 -6z
m17 -16 c-3 -7 -5 -2 -5 12 0 14 2 19 5 13 2 -7 2 -19 0 -25z m39 -174 c-4 -9
-9 -15 -11 -12 -3 3 -3 13 1 22 4 9 9 15 11 12 3 -3 3 -13 -1 -22z m-3 -39
c-3 -9 -8 -14 -10 -11 -3 3 -2 9 2 15 9 16 15 13 8 -4z"/>
<path d="M3323 4573 c18 -100 46 -167 48 -115 0 12 3 11 10 -6 5 -13 6 -29 2
-35 -4 -7 -8 -50 -9 -97 -1 -47 -5 -128 -8 -180 -6 -73 -5 -92 4 -80 10 12 10
10 5 -10 -4 -14 -13 -52 -20 -85 l-14 -60 5 50 c3 28 7 58 10 68 3 9 1 17 -3
17 -5 0 -19 -69 -32 -152 -12 -84 -25 -167 -28 -184 -4 -28 -2 -31 21 -31 15
0 27 6 29 16 4 13 5 13 6 -2 1 -11 6 -15 13 -11 6 4 30 6 54 5 l43 -1 1 42 c0
24 3 93 5 153 3 79 0 116 -9 130 -11 16 -11 30 -1 70 15 61 29 319 16 290 -5
-11 -10 -45 -10 -75 -1 -30 -4 -80 -8 -110 -12 -99 -19 -17 -9 118 5 70 6 166
2 215 l-8 87 -28 0 c-16 0 -31 -6 -33 -12 -4 -10 -6 -10 -6 0 -1 6 -13 12 -27
12 -23 0 -26 -3 -21 -27z m82 -53 c3 -5 1 -10 -4 -10 -6 0 -11 5 -11 10 0 6 2
10 4 10 3 0 8 -4 11 -10z m53 -575 l1 -20 -9 20 c-5 11 -8 31 -8 45 l0 25 8
-25 c4 -14 8 -34 8 -45z m-61 3 c-3 -8 -6 -5 -6 6 -1 11 2 17 5 13 3 -3 4 -12
1 -19z m29 -50 l-6 -43 14 30 c8 17 15 28 16 25 6 -18 4 -62 -2 -66 -4 -3 -5
-18 -1 -34 3 -17 1 -30 -4 -30 -6 0 -14 -19 -18 -42 -4 -24 -10 -35 -12 -26
-2 9 0 39 5 66 5 30 5 57 0 67 -9 15 -2 95 9 95 3 0 2 -19 -1 -42z m-16 -59
c0 -6 -4 -7 -10 -4 -5 3 -10 11 -10 16 0 6 5 7 10 4 6 -3 10 -11 10 -16z"/>
<path d="M4531 4584 c0 -11 3 -14 6 -6 3 7 2 16 -1 19 -3 4 -6 -2 -5 -13z"/>
<path d="M4574 4588 c-4 -6 -2 -14 4 -16 7 -2 10 -8 7 -12 -3 -5 -1 -11 5 -15
6 -4 10 6 10 24 0 32 -13 41 -26 19z"/>
<path d="M4550 4565 c-4 -69 -2 -116 4 -122 3 -4 6 7 6 23 0 17 5 35 12 42 9
9 9 12 -1 12 -8 0 -11 6 -7 15 3 8 1 25 -4 37 -8 22 -9 21 -10 -7z"/>
<path d="M3085 4560 c10 -11 15 -23 11 -27 -4 -4 -11 -1 -16 7 -12 20 -23 6
-15 -19 4 -13 11 -18 22 -14 13 5 15 2 10 -16 -7 -27 1 -51 17 -51 12 0 13 70
1 90 -5 9 -4 11 3 6 8 -5 10 -1 5 11 -8 21 -22 33 -42 33 -11 0 -10 -5 4 -20z"/>
<path d="M3141 4503 c-17 -19 -3 -68 19 -68 19 0 32 -43 20 -64 -7 -12 -9 -8
-10 17 0 49 -20 38 -21 -13 -1 -25 -2 -58 -3 -73 0 -16 4 -29 11 -29 7 0 11 3
11 6 -1 3 2 22 7 41 6 29 9 32 15 15 5 -14 8 -6 13 28 5 38 2 58 -18 102 -13
30 -25 55 -27 55 -2 -1 -9 -8 -17 -17z m29 -38 c0 -8 -4 -17 -10 -20 -6 -4
-10 5 -10 20 0 15 4 24 10 20 6 -3 10 -12 10 -20z"/>
<path d="M4579 4483 c0 -10 -2 -38 -5 -61 -3 -32 -1 -43 8 -40 16 6 24 118 8
118 -5 0 -10 -8 -11 -17z"/>
<path d="M3033 4438 c-2 -16 1 -18 10 -9 7 7 8 14 1 21 -6 6 -10 2 -11 -12z"/>
<path d="M4512 4380 c-14 -84 -15 -100 -3 -100 10 0 29 133 21 155 -3 9 -11
-16 -18 -55z"/>
<path d="M3070 4418 c0 -10 5 -18 10 -18 6 0 10 -7 10 -15 0 -8 4 -15 9 -15 6
0 12 -12 14 -27 3 -18 4 -14 3 9 -1 23 4 40 12 43 21 8 2 26 -20 19 -13 -4
-24 -1 -29 7 -7 11 -9 10 -9 -3z"/>
<path d="M1128 4363 c-10 -2 -18 -9 -18 -14 0 -6 7 -6 19 0 10 6 22 7 26 3 5
-4 5 -1 1 6 -4 6 -8 11 -9 11 -1 -1 -10 -3 -19 -6z"/>
<path d="M4570 4360 c0 -5 5 -10 10 -10 6 0 10 5 10 10 0 6 -4 10 -10 10 -5 0
-10 -4 -10 -10z"/>
<path d="M3082 4320 c0 -14 2 -19 5 -12 2 6 2 18 0 25 -3 6 -5 1 -5 -13z"/>
<path d="M3223 4324 c-7 -7 -13 -20 -13 -29 0 -9 -4 -13 -10 -10 -6 4 -10 -7
-10 -25 0 -18 -4 -29 -10 -25 -6 4 -10 -7 -9 -27 0 -27 2 -29 8 -13 5 12 7 -7
5 -47 -3 -61 -2 -66 16 -63 11 2 22 0 25 -5 3 -4 -11 -11 -31 -14 -21 -4 -34
-12 -31 -19 2 -7 -2 -25 -10 -41 -10 -19 -14 -46 -11 -77 3 -31 1 -46 -5 -42
-6 3 -7 1 -3 -5 10 -17 26 -15 26 3 0 7 6 18 14 22 7 4 16 15 20 23 3 8 4 2 1
-15 -3 -16 -7 -37 -8 -45 -1 -8 -21 -35 -44 -60 -24 -25 -43 -48 -43 -52 0 -4
-6 -5 -14 -2 -8 3 -16 -4 -20 -20 -3 -14 -11 -26 -16 -26 -6 0 -10 -10 -10
-22 0 -19 4 -16 26 17 l25 40 -5 -37 c-3 -27 0 -38 11 -42 27 -11 30 -6 25 48
-3 36 0 56 8 61 10 6 12 -2 7 -34 -7 -59 1 -84 26 -77 12 3 27 0 35 -6 10 -9
12 -8 10 3 -2 10 7 14 33 13 l36 -2 9 70 c10 67 9 68 -8 46 -10 -13 -16 -27
-14 -33 1 -5 -3 -16 -10 -23 -7 -7 -11 -20 -8 -30 5 -14 4 -15 -5 -2 -9 12
-11 13 -11 1 0 -8 -3 -12 -6 -9 -3 4 2 17 10 30 9 14 15 35 15 49 -1 13 6 43
14 66 9 23 12 43 7 45 -4 2 -2 17 5 33 l13 30 2 -30 2 -30 13 30 c7 17 18 65
24 107 9 66 8 80 -8 114 -10 22 -21 46 -25 54 -3 8 -4 2 -2 -15 3 -16 0 -50
-7 -75 -10 -41 -12 -43 -18 -20 -4 14 -7 34 -8 45 -1 16 1 17 9 5 8 -13 10
-12 11 5 3 47 -7 68 -21 45 -11 -17 -13 0 -4 25 5 13 8 14 15 3 15 -23 -3 66
-20 99 -13 26 -18 29 -28 17z m7 -84 c0 -5 -4 -10 -10 -10 -5 0 -10 5 -10 10
0 6 5 10 10 10 6 0 10 -4 10 -10z m-3 -52 c-3 -8 -6 -5 -6 6 -1 11 2 17 5 13
3 -3 4 -12 1 -19z m8 -58 c3 -5 1 -10 -4 -10 -6 0 -11 5 -11 10 0 6 2 10 4 10
3 0 8 -4 11 -10z m15 -95 c0 -8 -2 -15 -4 -15 -2 0 -6 7 -10 15 -3 8 -1 15 4
15 6 0 10 -7 10 -15z m20 -10 c0 -17 -5 -25 -17 -24 -11 0 -13 3 -5 6 6 2 12
13 12 24 0 10 2 19 5 19 3 0 5 -11 5 -25z m29 -16 c-16 -10 -23 -4 -14 10 3 6
11 8 17 5 6 -4 5 -9 -3 -15z m-104 1 c3 -5 1 -10 -4 -10 -6 0 -11 5 -11 10 0
6 2 10 4 10 3 0 8 -4 11 -10z m92 -32 c-9 -6 -8 -8 3 -8 12 0 12 -2 2 -9 -13
-8 -62 7 -62 20 0 3 16 5 35 5 21 0 30 -3 22 -8z m-126 -25 c-8 -15 -10 -15
-11 -2 0 17 10 32 18 25 2 -3 -1 -13 -7 -23z m73 -31 c-5 -14 -3 -13 10 2 9
11 19 16 23 11 5 -4 2 -10 -4 -12 -7 -3 -13 -11 -13 -18 0 -7 -7 -26 -15 -41
-9 -18 -15 -23 -15 -12 0 9 -6 18 -12 21 -10 3 -10 7 1 20 7 9 11 28 9 42 -4
20 -2 23 8 14 7 -6 10 -18 8 -27z m-34 -142 c0 -5 -4 -10 -10 -10 -5 0 -11
-12 -11 -27 -2 -25 -2 -26 -6 -5 -3 13 -2 30 1 38 6 16 26 19 26 4z m7 -82
c-3 -7 -5 -2 -5 12 0 14 2 19 5 13 2 -7 2 -19 0 -25z"/>
<path d="M4585 4321 c-6 -20 0 -69 9 -79 3 -3 5 18 5 46 -2 56 -4 63 -14 33z"/>
<path d="M546 4288 c-8 -30 -7 -38 2 -38 4 0 8 14 9 30 3 36 -2 39 -11 8z"/>
<path d="M658 4303 c12 -2 32 -2 45 0 12 2 2 4 -23 4 -25 0 -35 -2 -22 -4z"/>
<path d="M4498 4250 c-4 -14 -8 -41 -8 -61 0 -32 3 -36 24 -36 19 0 26 6 29
26 3 21 4 20 6 -9 2 -33 2 -34 16 -16 10 13 15 15 15 6 0 -7 3 -10 7 -6 5 4
-1 14 -11 22 -11 8 -14 14 -8 14 7 0 12 7 12 16 0 8 -4 12 -10 9 -6 -4 -11 6
-11 22 l-1 28 -8 -30 -8 -30 -1 28 c-1 18 -5 26 -12 21 -7 -4 -9 -21 -6 -40 3
-19 2 -36 -3 -39 -5 -3 -10 18 -12 47 -2 42 -5 48 -10 28z"/>
<path d="M458 4223 c7 -3 16 -2 19 1 4 3 -2 6 -13 5 -11 0 -14 -3 -6 -6z"/>
<path d="M3142 4160 c0 -14 2 -19 5 -12 2 6 2 18 0 25 -3 6 -5 1 -5 -13z"/>
<path d="M3103 4118 c6 -43 -12 -86 -30 -75 -13 8 -2 -67 11 -75 8 -5 7 -8 -2
-8 -7 0 -10 -4 -7 -10 3 -5 2 -10 -3 -10 -12 0 -8 -61 6 -85 7 -12 12 -14 12
-6 0 7 6 11 14 8 16 -6 16 -7 15 98 0 38 -6 76 -12 84 -9 12 -9 13 1 7 9 -5
12 7 11 53 -1 34 -6 61 -12 61 -6 0 -7 -17 -4 -42z m1 -226 c-6 -4 -14 -14
-17 -22 -4 -10 -6 -8 -6 8 -1 15 5 22 17 22 10 0 13 -3 6 -8z"/>
<path d="M3056 4131 c-4 -7 -5 -15 -2 -18 9 -9 19 4 14 18 -4 11 -6 11 -12 0z"/>
<path d="M3071 4084 c0 -11 3 -14 6 -6 3 7 2 16 -1 19 -3 4 -6 -2 -5 -13z"/>
<path d="M3150 4090 c0 -5 5 -10 11 -10 5 0 7 5 4 10 -3 6 -8 10 -11 10 -2 0
-4 -4 -4 -10z"/>
<path d="M3051 4074 c0 -11 3 -14 6 -6 3 7 2 16 -1 19 -3 4 -6 -2 -5 -13z"/>
<path d="M3141 4044 c0 -11 3 -14 6 -6 3 7 2 16 -1 19 -3 4 -6 -2 -5 -13z"/>
<path d="M3052 3995 c0 -16 2 -22 5 -12 2 9 2 23 0 30 -3 6 -5 -1 -5 -18z"/>
<path d="M936 3975 c5 -37 3 -42 -21 -53 -35 -16 -55 -15 -55 4 0 8 -4 13 -9
9 -5 -3 -12 3 -15 12 -3 10 -4 -22 -2 -71 2 -79 5 -91 25 -108 29 -23 43 -23
71 0 20 16 22 27 22 107 0 50 -5 101 -11 115 -9 21 -9 19 -5 -15z"/>
<path d="M3041 3944 c0 -11 3 -14 6 -6 3 7 2 16 -1 19 -3 4 -6 -2 -5 -13z"/>
<path d="M3030 3884 c0 -8 5 -12 10 -9 6 4 8 11 5 16 -9 14 -15 11 -15 -7z"/>
<path d="M3292 3860 c0 -14 2 -19 5 -12 2 6 2 18 0 25 -3 6 -5 1 -5 -13z"/>
<path d="M3055 3833 c0 -15 4 -27 10 -26 15 3 16 17 2 37 -12 16 -13 15 -12
-11z"/>
<path d="M3090 3821 c0 -5 5 -13 10 -16 6 -3 10 -2 10 4 0 5 -4 13 -10 16 -5
3 -10 2 -10 -4z"/>
<path d="M2640 3640 c-91 -4 -262 -10 -380 -14 -118 -4 -235 -9 -259 -12 l-44
-6 7 -141 c3 -78 8 -149 9 -157 4 -22 26 -57 27 -42 0 6 10 12 21 12 17 0 19
3 10 14 -13 16 10 41 31 33 9 -4 7 -6 -4 -6 -11 -1 -15 -7 -11 -21 5 -21 6
-21 21 1 14 21 16 21 22 4 5 -14 19 -19 55 -21 49 -3 49 -3 21 11 -16 8 -34
15 -42 15 -22 0 -27 21 -8 35 11 7 22 11 27 8 5 -3 0 -11 -10 -19 -17 -13 -17
-13 5 -14 13 0 22 6 22 15 0 24 17 17 24 -10 8 -32 42 -34 52 -2 l8 22 6 -24
c8 -34 30 -39 30 -7 0 16 6 26 15 26 8 0 14 -3 14 -7 -1 -5 -1 -15 0 -23 1
-13 2 -13 11 0 8 13 10 12 10 -3 0 -10 5 -15 10 -12 6 4 8 15 5 26 -5 14 -2
19 13 19 11 0 25 -7 32 -15 17 -21 67 -19 79 3 9 15 10 15 11 0 0 -14 4 -15
29 -5 15 5 36 7 45 4 25 -10 31 -7 28 10 -2 9 1 12 7 8 7 -4 14 6 17 25 9 40
14 33 19 -25 2 -26 6 -49 9 -52 3 -3 -3 -18 -13 -32 -9 -14 -30 -60 -45 -102
l-27 -76 -97 -8 c-53 -4 -116 -9 -140 -10 -23 -2 -49 -11 -58 -20 -12 -12 -19
-13 -30 -4 -8 6 -14 14 -14 16 0 3 6 0 14 -6 10 -8 16 -9 21 -1 3 5 2 10 -4
10 -5 0 -15 16 -21 36 -9 25 -15 32 -20 23 -6 -8 -13 2 -21 32 -7 24 -13 48
-13 54 -1 5 -10 11 -21 12 l-20 3 20 -9 c11 -5 15 -10 9 -10 -14 -1 -24 -61
-11 -61 6 0 7 -3 4 -7 -4 -3 -1 -13 5 -22 7 -9 0 -5 -14 8 -15 13 -26 27 -24
30 2 3 -7 14 -21 25 -25 18 -25 18 -21 -5 2 -13 14 -32 28 -41 14 -10 19 -18
12 -18 -23 0 -54 21 -49 34 3 7 -5 13 -20 14 -23 2 -24 0 -12 -16 21 -28 102
-102 112 -102 5 0 3 -8 -4 -17 -13 -16 -12 -17 4 -4 16 13 22 10 60 -26 23
-21 54 -45 70 -51 15 -6 27 -20 28 -29 0 -11 3 -13 6 -5 5 13 61 8 94 -9 9 -5
20 -4 26 2 8 8 13 5 18 -10 3 -11 21 -26 40 -32 26 -10 32 -16 24 -25 -6 -7
-8 -18 -4 -24 3 -6 -3 -10 -14 -10 -14 0 -21 6 -21 19 0 11 -4 22 -9 25 -5 4
-7 -11 -4 -34 5 -38 4 -40 -21 -40 -19 0 -26 5 -26 20 0 11 -4 20 -9 20 -5 0
-7 -9 -4 -19 3 -13 -1 -21 -14 -24 -10 -3 3 -5 30 -6 35 -1 47 -5 47 -17 0 -8
5 -12 10 -9 6 3 10 17 10 31 0 20 4 25 20 22 12 -2 19 -7 18 -13 -2 -5 -9 -8
-17 -7 -8 2 -10 -1 -6 -8 4 -7 24 -10 46 -8 32 3 39 0 39 -14 0 -10 5 -18 10
-18 6 0 10 24 10 54 0 30 -4 58 -10 61 -6 4 -10 -8 -10 -29 0 -29 -4 -36 -20
-36 -23 0 -27 15 -5 24 21 8 19 22 -6 45 l-22 20 24 -3 c31 -4 85 -30 128 -62
19 -13 46 -27 60 -30 40 -9 80 -25 79 -33 -1 -5 9 -35 29 -81 3 -8 7 -22 8
-30 8 -84 19 -141 27 -146 7 -5 9 10 6 44 -3 28 -1 53 3 54 5 2 6 13 3 25 -4
13 -10 20 -15 17 -5 -3 -6 2 -3 11 4 9 -2 25 -12 37 -11 12 -13 18 -6 14 15
-9 16 10 1 20 -8 5 -8 9 1 14 8 5 8 11 -4 22 -13 14 -7 16 60 22 41 4 96 16
122 27 68 30 150 42 173 25 10 -7 16 -16 12 -19 -9 -10 10 -8 26 2 11 7 9 12
-10 22 -13 7 -28 12 -34 11 -5 -1 -1 4 9 13 16 12 16 15 4 20 -8 3 -25 1 -39
-4 -21 -9 -22 -10 -4 -12 59 -5 -69 -15 -192 -14 -83 0 -139 -4 -136 -9 4 -5
1 -6 -6 -2 -6 4 -9 11 -6 16 3 5 -8 11 -23 15 -16 3 -29 12 -29 20 0 19 1 19
47 -10 41 -26 55 -31 46 -16 -6 10 21 8 46 -3 9 -4 31 -6 50 -4 28 3 22 6 -39
21 -40 10 -78 15 -84 11 -8 -4 -9 -3 -5 4 4 8 2 10 -7 6 -8 -3 -18 0 -23 7 -5
9 3 10 37 5 24 -4 60 -10 79 -13 19 -3 37 -9 40 -13 3 -4 14 -4 25 0 16 7 12
9 -23 15 -23 4 -44 11 -47 14 -6 10 118 0 130 -10 11 -11 79 -12 89 -2 4 4 21
8 37 9 25 1 34 -5 57 -45 15 -25 28 -54 28 -63 1 -10 2 -25 3 -33 0 -8 7 -15
14 -15 14 0 47 -31 47 -43 0 -4 -7 -7 -15 -7 -8 0 -15 4 -15 9 0 5 -12 16 -26
26 -24 16 -25 16 -16 -2 5 -10 8 -27 6 -37 -1 -10 4 -25 12 -33 12 -12 12 -18
2 -30 -10 -12 -9 -18 7 -30 20 -15 19 -15 -3 -10 -12 3 -20 1 -16 -4 3 -5 12
-9 20 -9 8 0 14 -7 14 -15 0 -20 -9 -19 -32 2 -17 15 -18 15 -13 1 4 -9 18
-24 31 -33 14 -9 22 -21 18 -27 -5 -7 -2 -9 9 -5 10 4 17 0 19 -11 3 -13 5
-12 10 6 3 12 2 20 -3 16 -5 -3 -9 4 -9 15 0 12 5 21 10 21 6 0 10 11 10 24 0
14 5 28 10 31 6 3 10 20 10 36 0 29 1 30 33 24 72 -16 77 -21 77 -70 0 -56
-14 -85 -40 -85 -11 0 -20 -5 -20 -12 0 -6 -3 -9 -6 -6 -8 9 25 69 35 63 5 -3
7 14 4 37 -7 52 -13 62 -13 21 0 -38 -24 -63 -26 -27 -3 39 -14 74 -24 74 -5
0 -7 -25 -6 -55 2 -30 0 -58 -5 -61 -5 -3 -9 0 -9 6 0 6 -4 9 -9 5 -6 -3 -9
-22 -8 -42 3 -39 8 -41 104 -45 43 -2 71 16 86 52 3 10 6 7 6 -7 1 -12 -3 -25
-9 -28 -5 -3 -10 -15 -10 -26 0 -19 1 -19 16 -4 20 20 31 68 43 196 9 98 4
126 -48 252 -6 16 -11 32 -11 36 0 4 -13 22 -29 40 -16 17 -28 40 -27 49 0 9
-5 16 -11 15 -7 -2 -13 4 -13 12 0 8 -4 15 -9 15 -6 0 -35 31 -67 69 -56 69
-85 88 -224 148 -19 8 -43 19 -52 24 -10 5 -36 9 -58 9 -31 0 -46 6 -67 29
-16 15 -38 31 -50 35 -16 5 -23 15 -23 31 0 13 -5 27 -10 30 -15 9 -8 65 7 65
7 0 13 5 13 11 0 6 -9 9 -20 6 -11 -3 -20 -1 -20 4 0 5 10 9 21 9 17 0 20 5
17 25 -3 16 -1 25 7 25 7 0 20 11 29 25 10 15 22 22 31 19 9 -4 15 0 15 9 0 8
6 18 13 20 6 3 -1 6 -16 6 -20 1 -26 -3 -21 -11 6 -10 4 -10 -7 0 -14 13 -42
13 -319 2z m260 -24 c0 -3 -4 -8 -10 -11 -5 -3 -10 -1 -10 4 0 6 5 11 10 11 6
0 10 -2 10 -4z m-40 -26 c0 -5 -7 -10 -15 -10 -8 0 -15 5 -15 10 0 6 7 10 15
10 8 0 15 -4 15 -10z m26 -42 c4 -6 3 -8 -4 -4 -16 9 -25 -30 -12 -54 15 -28
-1 -25 -23 5 -16 23 -16 24 0 34 10 6 14 11 8 11 -5 0 -3 5 5 10 19 12 17 12
26 -2z m-82 -13 c-4 -8 -12 -15 -20 -15 -20 0 -17 18 4 23 9 3 18 5 19 6 1 0
0 -6 -3 -14z m-83 -62 c0 -11 3 -13 6 -5 7 17 23 15 23 -4 0 -13 -6 -15 -27
-9 -34 8 -37 11 -28 24 10 17 25 13 26 -6z m-324 1 c-3 -3 -12 -4 -19 -1 -8 3
-5 6 6 6 11 1 17 -2 13 -5z m429 -10 c-9 -8 -16 -32 -16 -52 0 -28 3 -33 10
-22 8 13 10 12 10 -4 0 -15 5 -17 28 -11 25 6 26 6 7 -8 -13 -10 -26 -12 -42
-6 -14 5 -25 4 -29 -3 -4 -6 -3 -8 3 -5 6 4 14 0 17 -8 4 -13 2 -13 -14 -5
-21 11 -35 -1 -27 -24 3 -7 -1 -13 -8 -13 -14 0 -9 23 10 47 7 8 15 35 19 60
7 45 21 70 38 70 5 0 2 -7 -6 -16z m34 -25 c0 -6 -4 -7 -10 -4 -5 3 -10 11
-10 16 0 6 5 7 10 4 6 -3 10 -11 10 -16z m-178 -19 c5 0 7 7 4 16 -4 9 -1 14
6 12 18 -6 18 -38 0 -38 -28 0 -46 16 -36 31 7 11 9 10 12 -3 2 -10 8 -18 14
-18z m87 -26 c-7 -13 -16 -24 -21 -24 -5 0 -6 5 -3 10 3 6 -1 13 -9 16 -9 3
-13 11 -10 16 4 6 10 5 15 -3 7 -11 9 -11 9 -1 0 7 5 10 10 7 6 -3 11 4 11 17
1 19 2 20 6 4 3 -10 -1 -29 -8 -42z m-242 14 c-3 -8 -6 -5 -6 6 -1 11 2 17 5
13 3 -3 4 -12 1 -19z m71 -28 c3 -7 0 -10 -6 -6 -6 3 -12 0 -15 -6 -3 -7 -4
-3 -4 10 1 23 18 25 25 2z m121 11 c7 -5 12 -13 10 -19 -2 -6 -14 -2 -28 9
-23 19 -9 27 18 10z m-49 -22 c0 -6 -4 -7 -10 -4 -5 3 -10 11 -10 16 0 6 5 7
10 4 6 -3 10 -11 10 -16z m-430 1 c0 -5 -2 -10 -4 -10 -3 0 -8 5 -11 10 -3 6
-1 10 4 10 6 0 11 -4 11 -10z m316 -17 c-10 -10 -19 5 -10 18 6 11 8 11 12 0
2 -7 1 -15 -2 -18z m-126 -20 c0 -24 -25 -9 -28 17 -3 21 -2 22 12 11 9 -7 16
-20 16 -28z m535 -23 c16 -16 24 -30 18 -30 -7 0 -26 14 -43 30 -35 34 -43 36
-64 15 -18 -19 -33 -1 -16 20 16 19 67 2 105 -35z m-938 34 c-3 -3 -12 -4 -19
-1 -8 3 -5 6 6 6 11 1 17 -2 13 -5z m193 -14 c0 -5 -7 -10 -16 -10 -8 0 -12 5
-9 10 3 6 10 10 16 10 5 0 9 -4 9 -10z m437 -12 c-3 -8 -6 -5 -6 6 -1 11 2 17
5 13 3 -3 4 -12 1 -19z m63 -25 c-11 -17 -11 -17 -6 0 3 10 6 24 7 30 0 9 2 9
5 0 3 -7 0 -20 -6 -30z m225 -14 c6 -4 30 -13 55 -19 37 -10 41 -14 25 -20
-25 -9 -71 6 -79 26 -6 16 -36 19 -36 4 0 -5 -8 -10 -17 -10 -15 0 -16 2 -3
10 8 5 11 10 7 10 -5 0 -6 4 -2 10 6 9 31 4 50 -11z m-282 -6 c-8 -23 -33 -60
-33 -50 0 11 29 67 35 67 2 0 2 -8 -2 -17z m150 -2 c-2 -6 4 -11 13 -11 8 0
12 4 9 10 -3 6 1 7 9 4 9 -3 13 -10 10 -15 -3 -5 3 -9 13 -9 16 -1 15 -3 -6
-20 -14 -13 -18 -20 -10 -21 8 0 3 -6 -11 -12 -14 -6 -28 -15 -31 -20 -3 -5
-12 -9 -20 -10 -35 -6 -49 -37 -16 -37 7 0 6 4 -3 10 -12 8 -9 10 12 10 40 0
63 11 46 21 -10 7 -9 9 4 9 9 0 23 9 31 20 9 13 20 18 31 14 9 -3 16 -1 16 5
0 6 -4 11 -10 11 -5 0 -10 5 -10 10 0 16 32 12 52 -7 26 -23 22 -33 -12 -33
-16 0 -30 -4 -30 -10 0 -13 21 -13 55 0 17 7 24 7 20 0 -3 -6 0 -10 7 -11 7 0
2 -4 -10 -10 -13 -5 -28 -7 -33 -3 -5 3 -14 2 -21 -2 -7 -5 -5 -11 7 -21 18
-12 18 -13 -4 -13 -13 0 -20 -4 -16 -11 4 -6 13 -8 21 -5 11 4 13 -1 9 -22 -3
-15 -2 -21 1 -14 4 10 10 8 23 -7 21 -24 57 -18 64 10 3 10 12 19 20 19 20 0
184 -77 192 -90 3 -6 10 -8 15 -5 14 9 50 -13 50 -30 0 -7 -6 -17 -12 -21 -7
-4 -10 -4 -6 0 7 9 -24 45 -34 39 -4 -2 -51 19 -106 47 -54 27 -102 50 -106
50 -4 0 -5 -8 -1 -19 4 -15 -4 -23 -42 -39 -27 -12 -70 -43 -96 -71 -27 -27
-62 -54 -78 -60 -26 -9 -29 -8 -29 10 0 11 5 17 10 14 6 -3 10 -2 10 4 0 5 -5
11 -11 13 -13 4 -1 108 13 108 5 0 7 -13 3 -31 -8 -36 2 -99 16 -99 5 0 7 10
4 23 -12 47 -10 117 3 117 7 0 13 -14 13 -32 l2 -33 7 35 c4 19 8 29 9 21 0
-8 3 -12 6 -9 9 9 -6 38 -16 32 -5 -3 -26 0 -47 7 -48 17 -80 18 -86 2 -3 -8
1 -10 11 -6 12 5 14 3 8 -7 -5 -8 -3 -11 6 -8 8 3 13 11 12 17 -4 15 9 14 31
-2 18 -13 18 -14 1 -20 -12 -5 -15 -14 -11 -32 4 -16 2 -25 -5 -25 -6 0 -9 -7
-5 -15 7 -20 3 -19 -19 5 -18 20 -18 21 1 15 19 -7 19 -6 0 9 -15 12 -16 16
-5 16 8 0 20 9 27 20 14 22 1 27 -17 6 -16 -19 -63 -8 -59 14 2 9 -3 24 -11
33 -12 15 -10 16 20 11 32 -5 33 -5 11 8 -17 11 -20 16 -10 26 9 9 9 12 0 12
-7 0 -12 6 -12 14 0 14 36 16 57 3 18 -11 64 33 61 57 -6 44 -78 26 -102 -25
-5 -11 -7 -11 -12 -1 -3 6 -11 9 -16 6 -7 -5 -8 -2 -4 5 5 7 10 10 13 7 3 -3
23 10 45 28 37 32 76 41 71 17z m282 -1 c16 -7 11 -9 -20 -9 -22 0 -47 4 -55
9 -19 13 46 13 75 0z m38 -31 c20 -5 37 -13 37 -17 0 -4 14 -16 31 -26 37 -22
34 -29 -9 -16 -20 5 -30 5 -27 -1 8 -12 -8 -12 -21 1 -5 5 -27 16 -49 24 -35
13 -37 15 -13 15 15 1 38 -3 52 -9 20 -7 24 -6 19 5 -3 8 -18 15 -33 15 -16 0
-32 5 -35 10 -8 13 1 12 48 -1z m137 -45 c21 -6 60 -34 47 -34 -2 0 -29 11
-58 25 -51 24 -48 26 11 9z m-648 -21 c-3 -16 -7 -22 -10 -15 -4 13 4 42 11
42 2 0 2 -12 -1 -27z m408 19 c0 -5 8 -9 18 -9 51 1 83 -4 78 -11 -2 -4 15
-14 40 -21 47 -14 67 -31 36 -31 -19 0 -83 28 -92 40 -3 4 -21 11 -40 14 -26
5 -31 4 -20 -3 8 -6 10 -11 4 -11 -6 0 -19 9 -29 20 -10 11 -13 20 -7 20 7 0
12 -4 12 -8z m11 -52 c-10 -6 129 -60 159 -62 8 -1 21 -7 28 -15 23 -23 -54
-7 -106 22 -25 14 -65 27 -88 30 -54 5 -90 23 -76 37 8 8 16 6 27 -6 19 -18
31 -20 40 -6 6 9 -8 14 -28 11 -5 -1 -6 3 -2 8 4 7 15 6 31 -1 13 -6 20 -14
15 -18z m202 9 c26 -7 47 -17 47 -21 0 -12 -22 -21 -29 -11 -3 6 -26 20 -51
32 -47 22 -44 22 33 0z m-606 -11 c-3 -8 -6 -5 -6 6 -1 11 2 17 5 13 3 -3 4
-12 1 -19z m33 -13 c0 -8 -4 -15 -10 -15 -5 0 -10 7 -10 15 0 8 5 15 10 15 6
0 10 -7 10 -15z m485 -6 c5 -5 19 -9 31 -9 13 0 26 -4 29 -10 11 -17 -28 -10
-80 15 -37 18 -42 23 -20 18 17 -3 34 -10 40 -14z m196 -1 c11 -21 11 -22 -4
-9 -10 7 -17 9 -17 4 0 -16 22 -32 39 -26 13 4 14 3 2 -5 -11 -8 -22 -5 -42
11 -30 24 -38 43 -14 33 8 -3 15 -1 15 4 0 16 9 11 21 -12z m-1167 -20 c9 -17
16 -34 16 -37 0 -8 -26 32 -33 52 -10 28 0 19 17 -15z m816 -3 c0 -1 -8 -5
-18 -7 -11 -3 -19 0 -19 7 0 7 8 10 19 7 10 -2 18 -6 18 -7z m-377 -10 c-3 -9
-8 -14 -10 -11 -3 3 -2 9 2 15 9 16 15 13 8 -4z m688 -16 c13 -26 7 -24 -22 7
-17 19 -19 23 -6 18 10 -3 22 -15 28 -25z m-32 -30 c9 -27 9 -30 -4 -19 -8 7
-13 16 -10 20 3 5 1 11 -5 15 -5 3 -10 11 -10 16 0 19 18 -1 29 -32z m-743 13
c-15 -46 49 -68 145 -51 33 5 39 2 63 -27 14 -18 26 -44 26 -58 0 -21 -5 -26
-27 -27 -16 -1 -35 -2 -43 -3 -8 -1 -37 6 -63 16 -63 24 -107 24 -107 1 0 -12
3 -14 8 -6 4 7 16 10 27 8 11 -2 23 -4 26 -4 3 -1 6 -8 6 -17 0 -14 -2 -14
-14 2 -7 10 -13 13 -13 7 0 -18 -39 -11 -58 11 -9 11 -11 16 -4 12 18 -11 14
9 -5 25 -10 8 -31 21 -46 29 -16 8 -39 26 -50 40 -22 25 -51 32 -75 16 -7 -4
-16 -5 -19 -2 -3 3 -13 0 -22 -7 -14 -11 -14 -10 -2 5 19 25 82 40 162 37 38
-1 72 1 76 4 11 12 15 8 9 -11z m81 -29 c4 2 17 1 28 -4 18 -7 18 -8 -5 -8
-42 -1 -68 10 -73 31 -6 19 -5 19 18 -2 13 -12 27 -20 32 -17z m51 12 c-3 -3
-9 2 -12 12 -6 14 -5 15 5 6 7 -7 10 -15 7 -18z m57 -5 c2 -4 -7 -5 -20 -2
-14 2 -25 8 -25 12 0 10 38 1 45 -10z m394 7 c6 -8 8 -16 5 -19 -3 -3 9 -10
25 -16 17 -6 31 -16 31 -21 0 -6 8 -11 18 -11 9 0 24 -5 32 -11 11 -7 3 -8
-30 -3 -57 8 -86 23 -50 25 23 1 23 2 -5 8 -21 5 -30 12 -28 25 0 11 -4 15
-13 12 -8 -3 -21 -9 -31 -13 -11 -4 -14 -3 -9 5 4 7 15 12 24 13 14 0 13 2 -3
9 -20 8 -19 9 1 9 12 1 27 -5 33 -12z m-89 -11 c0 -2 -17 -12 -37 -21 -34 -16
-36 -19 -18 -27 16 -6 14 -7 -7 -3 -21 4 -28 1 -28 -10 0 -13 9 -15 48 -11 26
2 62 9 80 16 18 7 36 10 39 6 4 -3 -2 -7 -13 -7 -36 -2 61 -20 118 -22 31 -1
52 -5 46 -8 -11 -7 15 -19 43 -19 11 0 19 -7 19 -17 0 -10 3 -35 6 -55 5 -26
3 -38 -5 -38 -7 0 -9 5 -6 10 3 6 1 10 -5 10 -6 0 -9 4 -6 9 3 5 -9 12 -28 15
-33 6 -64 31 -53 42 3 3 19 -2 37 -11 18 -9 34 -14 38 -11 3 3 -1 6 -9 6 -11
0 -11 2 1 10 12 8 10 10 -10 10 -14 0 -36 7 -50 15 -31 18 -44 19 -37 3 5 -15
-120 -24 -157 -12 -18 6 -13 10 29 26 38 14 42 17 15 12 -19 -4 -64 -7 -99 -6
-65 0 -73 -13 -11 -21 24 -3 17 -4 -22 -5 -32 -1 -58 1 -58 4 0 18 74 94 90
94 10 0 22 5 25 10 6 10 25 14 25 6z m135 -14 c-3 -3 -11 0 -18 7 -9 10 -8 11
6 5 10 -3 15 -9 12 -12z m205 -13 c0 -6 4 -8 9 -4 10 6 26 -33 17 -42 -3 -3
-12 2 -21 11 -9 9 -21 13 -27 10 -7 -4 -8 -2 -4 4 4 7 3 12 -1 12 -5 0 -9 9
-10 20 -2 17 1 18 18 10 10 -6 19 -15 19 -21z m-1081 -36 c31 -4 26 5 -11 21
l-33 14 43 1 c23 1 42 6 42 11 0 6 5 10 10 10 6 0 10 -5 10 -11 0 -6 14 -29
32 -52 l32 -40 -34 7 c-19 4 -43 9 -52 11 -35 7 -86 37 -109 62 -23 26 -23 26
13 -2 20 -16 46 -30 57 -32z m180 -18 c24 -7 26 -16 9 -33 -8 -8 -8 -15 3 -29
7 -10 -9 5 -37 32 -29 28 -51 52 -51 55 1 3 -5 16 -12 30 -12 21 -8 19 26 -11
23 -21 50 -40 62 -44z m845 59 c3 -8 2 -12 -4 -9 -6 3 -10 10 -10 16 0 14 7
11 14 -7z m112 -39 c1 -14 -2 -25 -7 -25 -5 0 -4 -9 3 -20 7 -11 19 -20 26
-20 8 0 12 -6 9 -14 -3 -8 -9 -43 -13 -77 -5 -45 -4 -60 5 -55 6 4 12 19 12
34 2 24 2 25 6 4 3 -13 0 -29 -6 -35 -6 -8 -6 -18 -1 -27 8 -12 10 -10 10 8 0
12 4 22 9 22 5 0 5 16 -1 38 -13 46 -16 122 -6 116 5 -3 8 -13 8 -23 0 -9 4
-21 9 -26 12 -14 20 -102 10 -112 -4 -4 -9 -30 -10 -58 -3 -64 -6 -68 -32 -53
-12 7 -27 11 -34 10 -16 -4 -26 15 -12 24 8 5 9 3 4 -6 -5 -9 -4 -11 4 -6 8 5
6 14 -8 33 -16 19 -18 27 -8 38 15 16 19 12 34 -28 9 -25 12 -27 12 -11 1 12
-8 41 -19 65 -14 32 -20 38 -20 22 0 -13 -5 -23 -11 -23 -5 0 -7 -6 -3 -12 4
-8 3 -10 -2 -5 -5 5 -9 12 -10 15 -2 20 -17 41 -26 36 -5 -3 -4 -11 3 -20 7
-8 7 -14 1 -14 -5 0 -15 7 -22 15 -7 9 -8 15 -2 15 5 0 8 9 5 20 -3 12 0 20 6
20 7 0 10 -3 8 -7 -3 -5 6 -16 19 -26 24 -18 24 -18 24 10 0 22 2 25 11 13 9
-14 9 11 -4 135 -1 17 -1 34 1 38 6 13 15 -1 18 -28z m-386 8 c-12 -8 -24 -12
-27 -9 -4 3 0 6 8 6 12 0 12 2 0 9 -9 6 -5 9 13 9 27 0 27 -1 6 -15z m313 -92
c6 -27 4 -31 -6 -23 -7 6 -14 30 -15 54 -1 47 10 31 21 -31z m134 47 c-3 -8
-6 -5 -6 6 -1 11 2 17 5 13 3 -3 4 -12 1 -19z m-100 -30 c-3 -7 -5 -2 -5 12 0
14 2 19 5 13 2 -7 2 -19 0 -25z m-480 -5 c-7 -6 -46 10 -41 18 3 5 14 3 24 -3
11 -7 18 -13 17 -15z m460 -5 c-3 -8 -6 -5 -6 6 -1 11 2 17 5 13 3 -3 4 -12 1
-19z m40 -25 c-3 -10 -5 -4 -5 12 0 17 2 24 5 18 2 -7 2 -21 0 -30z m-765 15
c4 -12 114 -19 121 -8 2 3 2 -1 1 -7 -2 -7 2 -16 9 -20 7 -5 19 -16 26 -26 13
-17 13 -18 -4 -15 -11 1 -20 -2 -20 -9 0 -6 -3 -14 -7 -18 -9 -9 -5 16 5 32 5
9 -1 17 -17 24 -14 7 -22 17 -19 23 4 6 -2 4 -12 -4 -17 -13 -18 -13 -10 0 6
12 5 12 -5 3 -7 -7 -9 -17 -4 -25 19 -30 12 -38 -18 -21 -19 12 -24 19 -15 21
9 2 18 10 21 18 6 16 -10 19 -19 4 -5 -8 -11 -8 -19 -1 -7 6 -16 7 -20 3 -4
-4 -6 0 -4 8 2 8 -3 14 -10 12 -8 -1 -11 2 -7 8 8 14 22 13 27 -2z m748 -38
c0 -11 -4 -20 -9 -20 -5 0 -7 9 -4 20 3 11 7 20 9 20 2 0 4 -9 4 -20z m-117
-10 c3 -11 3 -20 1 -20 -2 0 -8 9 -14 20 -6 11 -7 20 -2 20 6 0 12 -9 15 -20z
m-458 0 c3 -5 1 -10 -4 -10 -6 0 -11 5 -11 10 0 6 2 10 4 10 3 0 8 -4 11 -10z
m-260 -21 c-8 -12 -35 -12 -35 0 0 11 22 20 33 14 4 -2 5 -9 2 -14z m190 12
c3 -5 2 -12 -3 -15 -5 -3 -9 1 -9 9 0 17 3 19 12 6z m325 -11 c-8 -5 -25 -10
-38 -10 -13 0 -30 -6 -38 -14 -18 -18 -151 -31 -184 -17 -14 5 -20 10 -15 11
6 0 32 3 60 5 27 3 51 9 53 15 2 5 16 10 30 9 l27 -1 -25 -8 c-24 -8 -24 -8 6
-9 16 -1 34 3 40 8 5 5 25 11 44 14 19 2 40 4 45 5 6 1 3 -3 -5 -8z m-171 -4
c-2 -2 -17 -6 -34 -10 -22 -5 -26 -4 -15 4 14 9 59 15 49 6z m476 -80 c0 -7 6
-20 12 -27 7 -8 8 -20 4 -27 -6 -9 -13 -7 -31 8 -14 12 -18 20 -10 20 8 0 -2
11 -21 25 -19 14 -34 31 -34 38 0 7 -4 18 -9 25 -4 7 14 -1 41 -18 26 -17 48
-37 48 -44z m138 -68 c-3 -46 -10 -87 -16 -93 -6 -7 -8 1 -3 24 3 18 6 60 6
92 0 33 4 59 9 59 5 0 7 -36 4 -82z m60 -10 c-3 -51 -9 -97 -13 -102 -8 -8 -3
128 6 172 10 47 12 18 7 -70z m-219 17 c3 -8 1 -15 -4 -15 -6 0 -10 7 -10 15
0 8 2 15 4 15 2 0 6 -7 10 -15z m187 -46 c14 -9 -6 -89 -27 -108 -17 -15 -17
-15 -5 2 9 11 14 46 14 95 0 42 2 64 4 47 3 -16 9 -33 14 -36z m-211 11 c0
-14 -5 -18 -17 -13 -16 6 -16 5 -4 -10 12 -15 11 -17 -2 -17 -26 0 -29 18 -6
33 15 11 17 16 7 20 -9 4 -7 6 5 6 11 1 17 -6 17 -19z m30 -14 c0 -8 -7 -27
-16 -42 l-16 -29 8 30 c4 17 6 38 6 48 0 9 3 15 9 12 5 -4 9 -12 9 -19z m50
-113 c0 -5 -5 -15 -10 -23 -8 -12 -10 -11 -10 8 0 12 5 22 10 22 6 0 10 -3 10
-7z m31 -46 c-10 -9 -11 -8 -5 6 3 10 9 15 12 12 3 -3 0 -11 -7 -18z"/>
<path d="M2928 3213 c7 -3 16 -2 19 1 4 3 -2 6 -13 5 -11 0 -14 -3 -6 -6z"/>
<path d="M2815 3115 c17 -8 37 -14 45 -14 8 0 -1 7 -20 14 -46 18 -64 17 -25
0z"/>
<path d="M2903 3075 c-3 -9 -3 -18 -1 -21 3 -3 8 4 11 16 6 23 -1 27 -10 5z"/>
<path d="M3123 2931 c-28 -4 -54 -9 -58 -12 -8 -9 98 2 115 12 8 5 11 8 5 7
-5 0 -33 -4 -62 -7z"/>
<path d="M2878 2773 c7 -3 16 -2 19 1 4 3 -2 6 -13 5 -11 0 -14 -3 -6 -6z"/>
<path d="M3323 2745 c15 -14 33 -25 40 -25 7 0 -1 11 -18 25 -39 32 -58 32
-22 0z"/>
<path d="M3026 3641 c-4 -6 -2 -11 3 -11 26 0 7 -17 -38 -33 -31 -11 -51 -24
-54 -37 -3 -13 0 -20 9 -20 8 0 14 -4 14 -10 0 -5 -5 -9 -11 -7 -6 1 -14 -4
-16 -11 -3 -8 3 -11 19 -8 12 3 26 5 30 5 4 1 5 8 2 16 -5 11 1 15 20 15 14 0
26 5 26 11 0 5 5 7 10 4 6 -3 10 1 10 11 0 14 -3 14 -15 4 -9 -7 -18 -10 -22
-6 -10 10 4 19 32 19 30 0 31 3 6 40 -11 18 -21 25 -25 18z m-46 -81 c0 -5 -4
-10 -10 -10 -5 0 -10 5 -10 10 0 6 5 10 10 10 6 0 10 -4 10 -10z"/>
<path d="M3063 3635 c9 -8 17 -20 20 -27 3 -9 9 -7 20 7 14 18 14 21 -1 27 -9
4 -25 7 -35 7 -16 1 -17 -1 -4 -14z"/>
<path d="M3176 3639 c3 -5 -4 -9 -15 -9 -22 0 -51 -25 -51 -43 0 -8 3 -8 8 -2
14 19 50 34 71 28 14 -4 21 -1 21 10 0 8 -9 17 -20 20 -11 3 -18 1 -14 -4z"/>
<path d="M3140 3570 c0 -5 5 -10 10 -10 6 0 10 5 10 10 0 6 -4 10 -10 10 -5 0
-10 -4 -10 -10z"/>
<path d="M3090 3540 c0 -5 5 -10 11 -10 5 0 7 5 4 10 -3 6 -8 10 -11 10 -2 0
-4 -4 -4 -10z"/>
<path d="M3018 3513 c12 -2 22 -9 22 -14 0 -6 5 -7 10 -4 17 11 0 25 -28 24
-24 -2 -24 -2 -4 -6z"/>
<path d="M2945 3480 c28 -12 37 -12 30 0 -3 6 -16 10 -28 9 -21 0 -21 -1 -2
-9z"/>
<path d="M3008 3483 c7 -3 16 -2 19 1 4 3 -2 6 -13 5 -11 0 -14 -3 -6 -6z"/>
<path d="M2920 3449 c0 -5 5 -7 10 -4 6 3 10 8 10 11 0 2 -4 4 -10 4 -5 0 -10
-5 -10 -11z"/>
<path d="M2898 3438 c7 -7 12 -21 12 -33 0 -14 7 -21 23 -22 18 -2 19 0 6 7
-9 6 -20 21 -23 35 -4 14 -12 25 -18 25 -9 0 -9 -3 0 -12z"/>
<path d="M2945 3419 c-4 -6 -5 -12 -2 -15 2 -3 7 2 10 11 7 17 1 20 -8 4z"/>
<path d="M2990 3340 c0 -5 5 -10 11 -10 5 0 7 5 4 10 -3 6 -8 10 -11 10 -2 0
-4 -4 -4 -10z"/>
<path d="M2520 3309 c0 -5 5 -7 10 -4 6 3 10 8 10 11 0 2 -4 4 -10 4 -5 0 -10
-5 -10 -11z"/>
<path d="M2550 3306 c0 -9 5 -16 10 -16 6 0 10 4 10 9 0 6 -4 13 -10 16 -5 3
-10 -1 -10 -9z"/>
<path d="M2590 3300 c0 -8 5 -22 10 -30 9 -13 10 -13 10 0 0 8 -5 22 -10 30
-9 13 -10 13 -10 0z"/>
<path d="M2015 3260 c-3 -5 -1 -10 4 -10 6 0 11 5 11 10 0 6 -2 10 -4 10 -3 0
-8 -4 -11 -10z"/>
<path d="M2225 3260 c3 -5 8 -10 11 -10 2 0 4 5 4 10 0 6 -5 10 -11 10 -5 0
-7 -4 -4 -10z"/>
<path d="M1774 3105 c0 -88 2 -123 3 -77 2 46 2 118 0 160 -1 42 -3 5 -3 -83z"/>
<path d="M2185 3250 c-3 -5 -2 -10 4 -10 5 0 13 5 16 10 3 6 2 10 -4 10 -5 0
-13 -4 -16 -10z"/>
<path d="M2138 3233 c7 -3 16 -2 19 1 4 3 -2 6 -13 5 -11 0 -14 -3 -6 -6z"/>
<path d="M2086 3215 c4 -8 8 -15 10 -15 2 0 4 7 4 15 0 8 -4 15 -10 15 -5 0
-7 -7 -4 -15z"/>
<path d="M2460 3220 c0 -5 5 -10 10 -10 6 0 10 5 10 10 0 6 -4 10 -10 10 -5 0
-10 -4 -10 -10z"/>
<path d="M1981 3088 c-1 -27 3 -48 7 -48 4 0 6 17 4 38 -5 58 -10 62 -11 10z"/>
<path d="M1987 3010 c3 -11 7 -20 9 -20 2 0 4 9 4 20 0 11 -4 20 -9 20 -5 0
-7 -9 -4 -20z"/>
<path d="M1988 2958 c-2 -13 -1 -36 3 -53 5 -24 7 -20 8 23 1 54 -4 68 -11 30z"/>
<path d="M1772 2910 c0 -14 2 -19 5 -12 2 6 2 18 0 25 -3 6 -5 1 -5 -13z"/>
<path d="M3155 2868 c-22 -5 -62 -7 -90 -3 -35 4 -46 2 -35 -5 13 -9 13 -10 0
-11 -8 -1 10 -5 40 -9 40 -5 59 -3 71 7 8 7 22 13 30 13 8 0 21 5 29 10 18 12
8 11 -45 -2z"/>
<path d="M1991 2858 c0 -7 4 -22 9 -33 8 -18 9 -17 9 7 1 15 -3 30 -9 33 -5 3
-10 0 -9 -7z"/>
<path d="M2250 2844 c0 -13 -3 -14 -14 -5 -8 7 -27 11 -43 9 -25 -3 -28 -7
-31 -45 -2 -30 1 -43 10 -43 7 0 22 -3 34 -6 17 -4 22 1 31 33 l10 38 2 -35
c2 -19 6 -44 11 -55 7 -16 9 -13 9 18 1 34 3 37 29 36 l27 -1 -25 -8 c-14 -4
-20 -8 -13 -9 6 -1 9 -10 6 -21 -7 -26 15 -34 58 -22 l34 10 -40 2 c-38 2 -39
2 -13 11 37 14 40 32 11 68 -32 38 -48 39 -61 4 l-10 -28 -1 27 c-1 29 -21 50
-21 22z m80 -35 c0 -5 -9 -9 -19 -9 -14 0 -18 5 -14 20 4 16 8 18 19 9 8 -6
14 -15 14 -20z m-117 -19 c4 -15 0 -20 -13 -20 -13 0 -17 5 -13 20 3 11 9 20
13 20 4 0 10 -9 13 -20z"/>
<path d="M2380 2830 c-12 -8 -9 -10 13 -10 21 0 27 -5 27 -22 0 -28 13 -15 16
17 2 20 -2 25 -19 25 -12 0 -29 -5 -37 -10z"/>
<path d="M2080 2728 c0 -5 5 -8 11 -8 5 0 8 -4 5 -9 -4 -5 0 -12 6 -14 7 -3
-5 -3 -27 1 -35 5 -38 4 -25 -10 23 -23 70 -32 71 -13 3 28 4 33 12 41 14 14
7 21 -23 20 -16 -1 -30 -4 -30 -8z"/>
<path d="M2408 2670 c-10 -6 -14 -18 -11 -32 4 -23 4 -23 -17 1 -18 21 -23 22
-31 10 -7 -11 -9 -11 -9 4 0 9 -5 17 -11 17 -5 0 -7 -4 -4 -10 9 -14 -18 -12
-34 3 -11 10 -13 8 -7 -13 3 -14 6 -30 6 -37 0 -6 15 -14 33 -16 l32 -4 -32
-1 c-33 -2 -41 -15 -24 -40 5 -9 23 -12 52 -10 l44 4 -45 9 -45 9 35 6 c29 4
35 9 33 27 -2 20 0 21 28 11 22 -8 28 -15 23 -27 -17 -43 -15 -55 5 -26 l21
30 0 -25 c1 -22 2 -23 13 -8 12 15 14 15 26 0 11 -15 11 -15 6 3 -8 24 -8 24
-6 54 1 19 5 23 26 18 19 -3 29 1 36 15 10 19 11 19 24 1 22 -29 18 -33 -32
-33 -37 -1 -44 -3 -31 -11 10 -5 20 -25 24 -45 6 -31 10 -35 32 -32 18 2 28
10 32 28 4 17 8 21 14 12 4 -6 16 -12 27 -12 12 0 19 -7 19 -20 0 -11 4 -20 8
-20 5 0 7 26 6 58 -2 31 -3 63 -4 70 0 6 -5 12 -11 12 -5 0 -9 -8 -8 -17 4
-42 -2 -63 -17 -63 -11 0 -15 8 -12 32 3 27 -2 34 -31 50 -20 12 -37 15 -45
10 -22 -17 -56 -21 -56 -6 0 8 -4 14 -10 14 -5 0 -10 -18 -10 -41 0 -28 -4
-39 -12 -36 -7 2 -11 11 -9 18 16 53 -3 81 -41 59z m32 -24 c0 -16 -18 -31
-27 -22 -8 8 5 36 17 36 5 0 10 -6 10 -14z m-110 -26 c0 -5 -7 -10 -15 -10 -8
0 -15 5 -15 10 0 6 7 10 15 10 8 0 15 -4 15 -10z m234 -26 c20 -8 21 -24 2
-24 -8 0 -16 7 -20 15 -6 17 -4 18 18 9z m16 -44 c0 -5 -7 -10 -15 -10 -8 0
-15 5 -15 10 0 6 7 10 15 10 8 0 15 -4 15 -10z"/>
<path d="M2128 2635 c-3 -15 0 -28 8 -33 13 -7 14 -10 14 -42 0 -16 7 -20 34
-20 19 0 38 5 42 12 5 8 -2 9 -23 5 -26 -5 -32 -3 -37 16 -7 26 16 44 26 19 5
-14 7 -14 8 -2 2 8 2 19 1 24 -1 4 10 5 24 2 17 -4 24 -3 20 4 -3 5 -15 10
-26 10 -10 0 -19 6 -19 13 0 8 -14 14 -34 15 -29 2 -34 -1 -38 -23z m49 -2 c4
-11 -26 -27 -35 -19 -2 3 -2 12 2 21 6 18 27 16 33 -2z"/>
<path d="M2764 2646 c-4 -9 -18 -16 -34 -16 -32 0 -42 -17 -31 -57 5 -20 16
-31 38 -37 18 -6 35 -19 39 -30 6 -16 8 -8 11 27 4 47 5 49 30 42 23 -5 25 -4
14 9 -8 9 -20 16 -27 16 -8 0 -14 10 -14 24 0 29 -18 44 -26 22z m10 -55 c-7
-44 -30 -55 -54 -26 -17 21 -8 50 15 48 11 -1 24 5 28 13 14 24 18 10 11 -35z"/>
<path d="M2830 2530 c0 -5 5 -10 11 -10 5 0 7 5 4 10 -3 6 -8 10 -11 10 -2 0
-4 -4 -4 -10z"/>
<path d="M3437 2517 c-3 -8 1 -14 9 -14 16 0 19 13 5 21 -5 3 -11 0 -14 -7z"/>
<path d="M1840 2350 c0 -5 5 -10 11 -10 5 0 7 5 4 10 -3 6 -8 10 -11 10 -2 0
-4 -4 -4 -10z"/>
<path d="M618 2235 c7 -26 31 -44 60 -45 12 0 22 -4 22 -9 0 -14 -93 -20 -413
-27 -237 -5 -287 -9 -287 -20 0 -12 27 -14 162 -9 387 12 586 15 616 9 31 -6
32 -8 32 -58 0 -28 3 -75 6 -103 6 -50 8 -53 35 -53 24 0 29 5 34 33 3 17 5
68 3 112 -2 63 -6 80 -18 81 -38 2 -41 4 -35 24 5 17 2 20 -24 20 -17 0 -42
11 -60 26 -17 14 -31 21 -31 15 0 -7 -11 -4 -27 6 -15 10 -39 18 -53 18 -22 0
-26 -4 -22 -20z"/>
<path d="M1790 2173 c0 -23 5 -33 15 -33 18 0 18 1 0 36 l-15 29 0 -32z"/>
<path d="M1830 2154 c0 -8 5 -12 10 -9 6 3 10 10 10 16 0 5 -4 9 -10 9 -5 0
-10 -7 -10 -16z"/>
<path d="M1916 2141 c-4 -5 3 -7 14 -4 23 6 26 13 6 13 -8 0 -17 -4 -20 -9z"/>
<path d="M340 2100 c0 -13 -7 -20 -19 -20 -15 0 -18 -7 -18 -37 1 -23 6 -40
15 -43 11 -5 10 -11 -6 -30 -15 -18 -18 -34 -14 -69 6 -57 18 -73 31 -40 9 21
10 19 10 -18 1 -42 2 -43 35 -43 35 0 35 0 39 53 3 40 5 47 11 30 10 -27 23
-21 39 15 11 25 12 23 15 -30 l3 -58 35 0 36 0 -4 55 c-3 61 3 69 21 28 15
-32 26 -20 36 39 6 32 2 43 -21 71 -27 31 -27 32 -6 35 18 3 22 10 22 43 l0
40 -87 -3 c-59 -2 -88 -7 -88 -15 0 -6 -3 -15 -7 -19 -5 -4 -8 2 -8 14 0 18
-6 22 -35 22 -28 0 -35 -4 -35 -20z m121 -78 c-5 -10 -18 -25 -27 -33 -16 -12
-17 -12 -11 4 4 10 7 25 7 33 0 8 9 14 20 14 17 0 19 -3 11 -18z"/>
<path d="M2134 2089 c-20 -22 -19 -24 19 -33 24 -6 27 -4 27 18 0 32 -24 40
-46 15z"/>
<path d="M1921 2064 c0 -11 3 -14 6 -6 3 7 2 16 -1 19 -3 4 -6 -2 -5 -13z"/>
<path d="M1970 2069 c0 -5 5 -7 10 -4 6 3 10 8 10 11 0 2 -4 4 -10 4 -5 0 -10
-5 -10 -11z"/>
<path d="M1936 2045 c-3 -9 0 -15 9 -15 16 0 20 16 6 24 -5 3 -11 -1 -15 -9z"/>
<path d="M2093 2038 c9 -7 21 -24 27 -38 10 -25 10 -25 7 5 -2 32 -13 45 -36
45 -12 0 -11 -3 2 -12z"/>
<path d="M1123 2000 c0 -25 2 -35 4 -22 2 12 2 32 0 45 -2 12 -4 2 -4 -23z"/>
<path d="M2074 2019 c-3 -6 -1 -16 5 -22 8 -8 11 -5 11 11 0 24 -5 28 -16 11z"/>
<path d="M0 1954 l0 -57 38 7 c20 3 65 6 100 6 l62 0 0 50 0 50 -100 0 -100 0
0 -56z"/>
<path d="M817 1883 c-4 -3 -7 -21 -7 -40 0 -32 1 -33 40 -33 l40 0 0 40 c0 39
-1 40 -33 40 -19 0 -37 -3 -40 -7z"/>
<path d="M1140 1845 c0 -3 5 -14 12 -25 7 -10 9 -23 4 -27 -7 -7 -301 -19
-913 -38 -208 -6 -243 -10 -243 -23 0 -13 25 -14 203 -8 111 3 344 11 517 17
489 15 452 12 461 36 5 15 3 26 -7 33 -8 7 -14 19 -14 26 0 8 -4 14 -10 14 -5
0 -10 -2 -10 -5z"/>
<path d="M1547 1653 c-10 -10 -8 -56 3 -73 7 -11 10 -2 10 33 0 48 -1 52 -13
40z"/>
<path d="M1478 1593 c5 -58 18 -76 24 -33 3 17 1 33 -4 36 -4 3 -8 14 -8 25 0
10 -3 19 -8 19 -4 0 -6 -21 -4 -47z"/>
<path d="M1412 1623 c-25 -3 -32 -8 -28 -20 3 -8 6 -28 6 -44 0 -23 4 -29 23
-29 12 0 29 5 37 11 12 8 9 10 -12 6 -26 -4 -28 -2 -28 29 0 30 3 34 25 34 14
0 25 5 25 10 0 6 -3 9 -7 8 -5 0 -23 -3 -41 -5z"/>
<path d="M1346 1568 c9 -71 14 -73 14 -5 0 33 -4 57 -10 57 -7 0 -8 -19 -4
-52z"/>
<path d="M1122 1590 c-30 -28 -28 -36 4 -15 21 13 31 15 50 6 16 -7 24 -7 24
-1 0 6 -12 15 -26 20 -32 12 -26 13 -52 -10z"/>
<path d="M1018 1583 c-6 -24 1 -53 13 -53 5 0 9 16 9 35 0 36 -15 48 -22 18z"/>
<path d="M1050 1571 c0 -17 5 -31 10 -31 6 0 10 11 10 24 0 14 -4 28 -10 31
-6 4 -10 -7 -10 -24z"/>
<path d="M1240 1562 c0 -48 7 -54 51 -45 l34 7 -34 6 c-29 4 -35 10 -38 35 -6
45 -13 44 -13 -3z"/>
<path d="M940 1580 c0 -5 12 -10 26 -10 14 0 23 -4 20 -8 -2 -4 -1 -14 5 -22
6 -11 9 -6 9 18 0 29 -3 32 -30 32 -16 0 -30 -4 -30 -10z"/>
<path d="M901 1538 c1 -70 17 -93 18 -26 1 31 -3 60 -9 63 -6 4 -10 -11 -9
-37z"/>
<path d="M790 1550 c0 -5 14 -10 31 -10 17 0 28 -4 24 -10 -3 -5 -15 -10 -26
-10 -15 0 -19 -7 -19 -31 0 -28 3 -31 23 -25 12 3 30 6 40 6 9 0 17 5 17 11 0
7 -11 8 -30 4 -23 -5 -30 -3 -30 9 0 10 9 16 25 16 20 0 25 5 25 25 0 23 -4
25 -40 25 -22 0 -40 -4 -40 -10z"/>
<path d="M1127 1553 c-26 -3 -35 -8 -30 -16 4 -7 7 -20 8 -29 0 -10 3 -18 8
-18 96 -2 95 -2 99 35 4 38 8 37 -85 28z m53 -23 c-36 -12 -60 -12 -60 0 0 6
19 10 43 9 36 -1 38 -2 17 -9z m-2 -27 c-10 -2 -28 -2 -40 0 -13 2 -5 4 17 4
22 1 32 -1 23 -4z"/>
<path d="M1550 1550 c0 -5 5 -10 10 -10 6 0 10 5 10 10 0 6 -4 10 -10 10 -5 0
-10 -4 -10 -10z"/>
<path d="M590 1521 c0 -17 5 -33 10 -36 6 -3 10 1 10 9 0 9 5 16 10 16 6 0 5
8 -2 20 -18 28 -28 25 -28 -9z"/>
<path d="M672 1543 c-18 -4 -21 -9 -16 -31 4 -15 7 -27 8 -28 10 -5 106 11
106 18 0 6 -16 8 -44 4 -34 -5 -45 -4 -49 9 -5 11 1 15 21 16 15 1 38 5 52 9
21 7 19 8 -15 8 -22 -1 -50 -3 -63 -5z"/>
<path d="M494 1518 c3 -13 6 -26 6 -30 0 -11 70 -10 70 1 0 4 -12 7 -27 5
l-28 -4 30 15 30 14 -30 1 c-26 1 -27 3 -10 10 17 7 14 9 -14 9 -30 1 -33 -1
-27 -21z"/>
<path d="M1032 1514 c-9 -15 -13 -17 -23 -6 -7 6 -16 12 -19 12 -11 0 -30 -49
-21 -55 5 -3 12 2 15 11 5 14 9 14 22 3 13 -11 17 -10 26 5 8 14 13 15 24 5
22 -18 25 -7 5 20 -18 23 -19 23 -29 5z"/>
<path d="M444 1509 c-4 -7 -24 -9 -50 -6 l-44 5 0 -45 c0 -43 1 -45 24 -39 15
4 26 1 29 -7 3 -9 8 -9 21 3 10 8 25 15 33 16 20 3 21 4 15 47 -4 37 -15 47
-28 26z m6 -29 c0 -5 -4 -10 -9 -10 -5 0 -23 -3 -40 -6 -19 -4 -31 -2 -31 4 0
9 17 14 68 21 6 0 12 -3 12 -9z m-47 -37 c-7 -2 -19 -2 -25 0 -7 3 -2 5 12 5
14 0 19 -2 13 -5z"/>
<path d="M180 1500 c-19 -4 -28 -8 -19 -9 14 -1 29 -20 29 -37 0 -2 -11 -4
-25 -4 -14 0 -25 -5 -25 -11 0 -8 15 -10 46 -5 26 3 55 6 65 6 11 0 19 5 19
10 0 6 -9 10 -19 10 -26 0 -51 10 -51 21 0 5 11 9 25 9 14 0 25 -4 25 -10 0
-5 5 -10 10 -10 6 0 10 9 10 20 0 22 -22 24 -90 10z"/>
<path d="M23 1483 c30 -5 27 -23 -4 -23 -10 0 -19 -4 -19 -10 0 -5 6 -10 13
-10 8 0 7 -3 -3 -10 -21 -13 -10 -18 32 -12 44 5 51 21 11 23 -16 1 -21 3 -12
6 10 2 19 13 22 24 4 16 0 19 -31 18 -31 -2 -32 -3 -9 -6z"/>
<path d="M515 1459 c-14 -6 -3 -7 32 -3 49 5 54 4 62 -18 10 -23 10 -23 10 5
1 25 -1 27 -41 26 -24 0 -52 -5 -63 -10z"/>
<path d="M698 1463 c-27 -2 -48 -8 -48 -13 0 -11 87 -2 110 11 13 7 13 8 0 7
-8 -1 -36 -3 -62 -5z"/>
<path d="M193 1423 c-18 -2 -33 -8 -33 -12 0 -5 20 -6 45 -3 37 4 45 2 45 -12
0 -9 5 -16 10 -16 6 0 10 11 10 25 0 26 -3 27 -77 18z"/>
<path d="M5 1370 c-7 -12 32 -12 60 0 16 7 13 9 -17 9 -20 1 -40 -3 -43 -9z"/>
<path d="M30 1045 c0 -8 5 -15 10 -15 6 0 10 7 10 15 0 8 -4 15 -10 15 -5 0
-10 -7 -10 -15z"/>
<path d="M1306 837 c-27 -20 -18 -81 12 -85 46 -7 71 48 36 82 -19 19 -25 20
-48 3z m36 -19 c7 -21 -4 -59 -16 -55 -22 7 -19 67 3 67 5 0 11 -5 13 -12z"/>
<path d="M1387 843 c-4 -3 -7 -23 -7 -44 0 -43 24 -58 60 -39 25 13 28 75 4
84 -21 8 -49 8 -57 -1z m43 -44 c0 -29 -13 -39 -25 -18 -10 15 4 61 15 54 6
-3 10 -19 10 -36z"/>
<path d="M1107 833 c-16 -15 -6 -51 14 -56 23 -6 17 -27 -7 -27 -8 0 -14 -4
-14 -10 0 -11 20 -13 44 -4 24 9 20 55 -4 61 -11 3 -20 9 -20 14 0 5 9 9 20 9
11 0 20 5 20 10 0 11 -43 14 -53 3z"/>
<path d="M1207 798 c-7 -52 -3 -58 33 -58 31 0 39 14 36 65 -1 26 -5 30 -32
33 -30 3 -31 1 -37 -40z m53 -28 c0 -5 -9 -10 -21 -10 -11 0 -17 5 -14 10 3 6
13 10 21 10 8 0 14 -4 14 -10z"/>
<path d="M983 810 c-6 -23 -23 -27 -23 -5 0 22 -17 18 -23 -5 -6 -25 21 -82
36 -77 6 2 14 14 18 28 7 23 7 23 8 2 1 -25 31 -33 31 -8 0 7 6 18 14 22 9 5
12 18 9 36 -6 33 -18 35 -27 5 l-7 -23 -9 23 c-12 27 -20 28 -27 2z"/>
<path d="M1166 735 c-3 -9 0 -15 9 -15 8 0 15 7 15 15 0 8 -4 15 -9 15 -5 0
-11 -7 -15 -15z"/>
<path d="M1462 628 c-13 -13 -16 -47 -6 -72 4 -9 18 -16 34 -16 29 0 40 15 40
54 0 26 -17 46 -40 46 -9 0 -21 -5 -28 -12z m43 -29 c8 -23 -7 -45 -24 -35
-12 8 -15 39 -4 49 12 12 22 7 28 -14z"/>
<path d="M1292 621 c-8 -4 -12 -17 -11 -27 2 -11 0 -25 -5 -32 -5 -9 -2 -20 7
-30 13 -12 21 -13 41 -4 20 9 24 18 23 49 -1 48 -22 65 -55 44z m28 -21 c0 -5
-4 -10 -10 -10 -5 0 -10 5 -10 10 0 6 5 10 10 10 6 0 10 -4 10 -10z m1 -53
c-13 -13 -26 -3 -16 12 3 6 11 8 17 5 6 -4 6 -10 -1 -17z"/>
<path d="M1372 618 c-20 -20 -15 -76 8 -83 43 -14 73 29 54 79 -7 19 -45 21
-62 4z m38 -38 c0 -31 -16 -41 -26 -15 -8 19 2 45 16 45 5 0 10 -13 10 -30z"/>
<path d="M1113 612 c-15 -9 -5 -102 12 -102 8 0 11 16 10 50 -2 55 -5 62 -22
52z"/>
<path d="M1160 605 c-25 -30 -8 -95 26 -95 36 0 59 71 32 98 -16 16 -43 15
-58 -3z m45 -26 c9 -26 -10 -48 -26 -32 -12 12 -3 53 11 53 5 0 12 -9 15 -21z"/>
<path d="M1035 593 c-8 -26 -25 -31 -25 -8 0 8 -7 15 -15 15 -8 0 -15 -7 -15
-15 0 -8 -4 -15 -10 -15 -5 0 -10 7 -10 15 0 8 -4 15 -9 15 -11 0 -22 -53 -12
-60 4 -3 10 -13 14 -22 9 -25 26 -22 36 4 l8 22 5 -22 c8 -27 28 -29 28 -2 0
10 7 23 15 27 11 7 12 16 5 38 -8 29 -9 29 -15 8z"/>
<path d="M479 568 c-6 -37 5 -125 14 -111 12 19 12 112 0 124 -7 7 -12 3 -14
-13z"/>
<path d="M610 525 c0 -37 4 -65 10 -65 6 0 10 28 10 65 0 37 -4 65 -10 65 -6
0 -10 -28 -10 -65z"/>
<path d="M530 560 c-7 -12 -9 -33 -6 -47 5 -19 12 -24 34 -21 24 3 27 7 27 43
0 33 -4 41 -22 43 -14 2 -26 -4 -33 -18z m40 -25 c0 -26 -14 -33 -25 -15 -9
14 1 40 15 40 5 0 10 -11 10 -25z"/>
<path d="M118 545 c-5 -23 -2 -25 34 -25 24 0 37 -4 33 -10 -3 -5 -22 -10 -41
-10 -19 0 -34 -4 -34 -9 0 -5 9 -7 20 -4 11 3 21 0 21 -6 1 -6 2 -16 3 -23 2
-25 26 -19 26 6 0 20 5 26 21 26 15 0 19 4 15 16 -3 9 -6 27 -6 40 0 22 -4 24
-44 24 -39 0 -44 -3 -48 -25z m59 -1 c-3 -3 -12 -4 -19 -1 -8 3 -5 6 6 6 11 1
17 -2 13 -5z"/>
<path d="M280 560 c0 -5 6 -10 13 -10 8 0 8 -3 -2 -9 -16 -10 -26 -51 -12 -51
5 0 8 -8 7 -17 -1 -14 8 -19 42 -21 25 -2 42 1 42 7 0 6 -16 11 -35 11 -19 0
-35 5 -35 11 0 6 9 8 20 4 11 -4 20 -2 20 4 0 6 11 11 24 11 19 0 23 4 19 20
-3 11 -12 20 -19 20 -20 0 -17 18 4 23 9 3 -7 5 -35 6 -30 0 -53 -3 -53 -9z
m65 -38 c-3 -3 -15 -7 -27 -9 -17 -3 -19 -1 -9 11 7 8 19 12 27 9 8 -3 12 -8
9 -11z"/>
<path d="M400 525 c0 -43 1 -45 30 -45 29 0 30 2 30 45 0 43 -1 45 -30 45 -29
0 -30 -2 -30 -45z m40 0 c0 -14 -4 -25 -10 -25 -5 0 -10 11 -10 25 0 14 5 25
10 25 6 0 10 -11 10 -25z"/>
<path d="M16 553 c-14 -4 -16 -7 -6 -13 11 -7 11 -11 0 -24 -16 -20 -6 -33 14
-17 11 10 19 9 35 -1 11 -7 24 -9 28 -4 4 4 0 12 -10 17 -21 12 -22 29 -1 29
8 0 12 5 9 10 -6 10 -35 11 -69 3z"/>
<path d="M1246 533 c-9 -9 -7 -33 3 -33 12 0 22 28 12 34 -5 3 -11 3 -15 -1z"/>
<path d="M0 462 c0 -4 17 -6 38 -4 64 6 69 10 15 11 -29 0 -53 -3 -53 -7z"/>
<path d="M1455 396 c-29 -44 3 -98 48 -81 19 8 28 52 16 82 -11 30 -44 30 -64
-1z m43 -37 c-1 -13 -7 -23 -13 -22 -13 3 -18 30 -11 50 10 24 29 1 24 -28z"/>
<path d="M1288 398 c-11 -9 -16 -26 -15 -53 2 -35 5 -40 28 -43 14 -2 31 4 39
13 12 14 15 14 32 -2 30 -27 53 -6 53 48 0 41 -2 44 -28 47 -24 3 -30 -2 -40
-27 -13 -35 -28 -42 -20 -10 4 12 0 25 -8 30 -18 12 -22 11 -41 -3z m122 -38
c0 -20 -5 -30 -15 -30 -10 0 -15 10 -15 30 0 20 5 30 15 30 10 0 15 -10 15
-30z m-90 -30 c0 -5 -7 -10 -15 -10 -8 0 -15 5 -15 10 0 6 7 10 15 10 8 0 15
-4 15 -10z"/>
<path d="M1166 386 c-8 -7 -13 -26 -13 -51 2 -32 6 -41 22 -43 34 -5 53 19 48
60 -5 39 -31 55 -57 34z m34 -16 c0 -5 -4 -10 -10 -10 -5 0 -10 5 -10 10 0 6
5 10 10 10 6 0 10 -4 10 -10z m0 -50 c0 -5 -7 -10 -15 -10 -8 0 -15 5 -15 10
0 6 7 10 15 10 8 0 15 -4 15 -10z"/>
<path d="M1114 382 c-15 -10 -5 -92 11 -92 8 0 13 17 14 50 1 49 -4 57 -25 42z"/>
<path d="M650 311 c0 -41 4 -71 10 -71 6 0 10 28 10 64 0 36 -4 68 -10 71 -6
4 -10 -20 -10 -64z"/>
<path d="M937 353 c-3 -16 -2 -30 2 -33 4 -3 10 -13 14 -22 9 -26 37 -22 38 5
l0 22 9 -22 c12 -30 28 -29 36 2 3 14 10 25 14 25 4 0 7 11 6 25 -1 26 -26 36
-26 10 0 -8 -4 -15 -10 -15 -5 0 -10 7 -10 15 0 8 -5 15 -10 15 -6 0 -13 -7
-16 -15 -4 -8 -10 -15 -15 -15 -5 0 -9 7 -9 15 0 26 -17 16 -23 -12z"/>
<path d="M517 357 c-7 -18 4 -117 13 -117 10 0 17 64 12 101 -4 30 -16 38 -25
16z"/>
<path d="M355 349 c-22 -3 -32 -7 -22 -8 20 -1 23 -21 3 -21 -18 0 -30 -30
-16 -44 5 -5 10 -18 10 -28 0 -14 8 -18 39 -18 22 0 43 5 46 10 4 6 -8 10 -28
10 -22 0 -37 6 -41 15 -7 18 10 20 18 3 5 -10 7 -10 12 0 3 6 17 12 30 12 35
0 29 25 -11 48 -19 11 -19 11 3 12 12 0 22 4 22 8 0 10 -9 10 -65 1z m35 -45
c0 -2 -9 -4 -21 -4 -11 0 -18 4 -14 10 5 8 35 3 35 -6z"/>
<path d="M571 346 c-8 -9 -10 -27 -6 -46 5 -23 12 -30 31 -30 25 0 39 30 32
67 -4 23 -41 29 -57 9z m39 -31 c0 -26 -14 -33 -25 -15 -9 14 1 40 15 40 5 0
10 -11 10 -25z"/>
<path d="M60 340 c-38 -7 -23 -20 20 -17 16 1 25 -3 25 -13 0 -11 -12 -15 -52
-15 l-53 1 2 -41 c1 -34 2 -35 5 -9 4 27 7 30 32 26 19 -2 31 -12 38 -30 l11
-27 1 28 c1 22 6 27 26 27 22 0 24 3 18 33 -6 29 -20 49 -33 46 -3 -1 -21 -5
-40 -9z"/>
<path d="M170 335 c0 -8 -4 -15 -10 -15 -17 0 -11 -18 7 -22 15 -3 15 -4 -1
-21 -22 -22 -12 -36 13 -20 14 9 21 9 30 0 6 -6 14 -7 18 -3 4 4 0 12 -10 17
-21 12 -22 29 -2 29 27 0 16 20 -12 21 -17 1 -21 3 -10 6 23 6 22 23 -3 23
-11 0 -20 -7 -20 -15z"/>
<path d="M239 346 c-8 -9 3 -126 12 -120 11 7 12 124 1 124 -5 0 -11 -2 -13
-4z"/>
<path d="M440 310 c0 -38 2 -40 30 -40 28 0 30 2 30 40 0 38 -2 40 -30 40 -28
0 -30 -2 -30 -40z m40 -5 c0 -14 -4 -25 -10 -25 -5 0 -10 11 -10 25 0 14 5 25
10 25 6 0 10 -11 10 -25z"/>
<path d="M1235 299 c-4 -6 -5 -13 -2 -16 7 -7 27 6 27 18 0 12 -17 12 -25 -2z"/>
<path d="M1453 174 c-16 -26 -17 -26 -25 -5 -12 35 -56 28 -74 -11 -9 -21 -13
-24 -10 -10 5 29 -25 48 -53 32 -15 -7 -19 -20 -18 -52 2 -37 5 -43 25 -46 13
-2 31 3 41 12 13 12 20 13 28 5 15 -15 63 -3 63 16 0 19 16 19 24 0 8 -22 53
-19 66 4 14 27 13 47 -6 65 -22 23 -41 20 -61 -10z m43 -39 c-4 -14 -11 -23
-16 -20 -11 7 -13 48 -3 59 13 13 26 -13 19 -39z m-88 2 c2 -19 -1 -27 -12
-27 -11 0 -16 10 -16 31 0 38 24 35 28 -4z m-88 -27 c0 -5 -4 -10 -10 -10 -5
0 -10 5 -10 10 0 6 5 10 10 10 6 0 10 -4 10 -10z"/>
<path d="M1173 169 c-35 -13 -31 -56 5 -62 26 -4 26 -4 5 -12 -27 -9 -30 -25
-5 -25 36 0 56 34 46 75 -7 28 -22 35 -51 24z m23 -35 c-5 -14 -9 -15 -19 -5
-9 9 -9 14 3 21 18 11 24 6 16 -16z"/>
<path d="M1114 162 c-16 -10 -5 -92 12 -92 10 0 14 13 14 44 0 46 -8 60 -26
48z"/>
<path d="M944 128 c5 -46 16 -68 32 -68 8 0 14 9 14 20 0 11 5 20 11 20 5 0 8
-4 5 -8 -8 -13 11 -35 23 -28 6 4 11 16 11 27 0 10 4 19 9 19 5 0 8 11 7 25
-1 31 -23 33 -29 3 l-4 -23 -8 23 c-4 12 -11 22 -15 22 -5 0 -12 -10 -16 -22
l-7 -23 -10 23 c-15 33 -28 27 -23 -10z"/>
<path d="M490 85 c0 -37 4 -65 10 -65 6 0 10 28 10 65 0 37 -4 65 -10 65 -6 0
-10 -28 -10 -65z"/>
<path d="M610 105 c0 -34 4 -45 15 -45 12 0 15 10 13 45 -4 61 -28 61 -28 0z"/>
<path d="M660 134 c0 -10 6 -14 15 -10 21 8 19 -11 -2 -24 -13 -8 -14 -13 -5
-16 17 -8 15 -24 -3 -24 -8 0 -15 -4 -15 -10 0 -13 107 -13 115 0 3 6 -1 10
-9 10 -19 0 -21 16 -3 24 9 3 7 9 -5 19 -22 17 -23 27 -3 27 8 0 15 5 15 10 0
6 -22 10 -50 10 -39 0 -50 -3 -50 -16z m60 -54 c0 -11 -4 -20 -10 -20 -5 0
-10 9 -10 20 0 11 5 20 10 20 6 0 10 -9 10 -20z"/>
<path d="M360 81 c0 -33 5 -63 10 -66 6 -4 10 6 10 22 0 16 6 35 13 42 10 11
10 14 0 18 -7 3 -13 13 -13 24 0 10 -4 19 -10 19 -6 0 -10 -26 -10 -59z"/>
<path d="M427 129 c-21 -12 -23 -62 -3 -78 23 -19 46 -2 46 34 0 39 -18 58
-43 44z m26 -25 c8 -8 -3 -34 -14 -34 -5 0 -9 9 -9 20 0 19 11 26 23 14z"/>
<path d="M535 130 c-3 -6 4 -10 17 -10 l23 -1 -25 -21 c-16 -14 -21 -22 -12
-25 6 -3 12 -16 12 -29 0 -23 2 -24 43 -18 54 9 60 14 15 14 -27 0 -37 5 -41
20 -3 11 -2 20 2 20 7 0 31 44 31 55 0 10 -59 5 -65 -5z"/>
<path d="M10 101 c0 -30 1 -31 46 -31 44 0 45 1 42 28 -3 24 -7 27 -45 30 -42
3 -43 2 -43 -27z m68 -18 c-10 -2 -26 -2 -35 0 -10 3 -2 5 17 5 19 0 27 -2 18
-5z"/>
<path d="M173 116 c15 -12 16 -14 2 -20 -16 -6 -21 -36 -7 -36 5 0 8 -10 8
-22 -1 -20 5 -23 42 -26 25 -2 42 1 42 7 0 6 -16 11 -35 11 -27 0 -35 4 -34
18 0 10 3 12 6 5 6 -15 33 -17 33 -3 0 6 9 10 20 10 26 0 28 40 3 41 -11 0
-13 3 -5 6 29 11 8 23 -40 23 -47 -1 -51 -2 -35 -14z m60 -33 c-7 -2 -19 -2
-25 0 -7 3 -2 5 12 5 14 0 19 -2 13 -5z"/>
<path d="M282 88 c3 -40 5 -43 33 -43 28 0 30 2 30 40 0 38 -2 40 -33 43 l-33
3 3 -43z m38 -4 c0 -14 -4 -23 -10 -19 -5 3 -10 15 -10 26 0 10 5 19 10 19 6
0 10 -12 10 -26z"/>
<path d="M1235 80 c-3 -5 -3 -15 1 -21 6 -11 23 6 24 24 0 10 -18 9 -25 -3z"/>
<path d="M0 50 c0 -5 8 -10 19 -10 11 0 21 -9 24 -21 3 -12 10 -18 17 -14 6 4
9 13 6 21 -4 10 2 14 19 14 14 0 25 5 25 10 0 6 -25 10 -55 10 -30 0 -55 -4
-55 -10z"/>
</g>
</svg>
